<svg width="100%" height="100%" viewBox="0 0 124 124" fill="none" xmlns="http://www.w3.org/2000/svg">
<path d="M61.853 123.706C96.0135 123.706 123.706 96.0135 123.706 61.853C123.706 27.6926 96.0135 0 61.853 0C27.6925 0 0 27.6926 0 61.853C0 96.0135 27.6925 123.706 61.853 123.706Z" fill="#FC8E44"/>
<mask id="mask0_1_912" style="mask-type:luminance" maskUnits="userSpaceOnUse" x="0" y="0" width="100%" height="100%">
<path d="M61.853 123.706C96.0135 123.706 123.706 96.0135 123.706 61.853C123.706 27.6926 96.0135 0 61.853 0C27.6925 0 0 27.6926 0 61.853C0 96.0135 27.6925 123.706 61.853 123.706Z" fill="white"/>
</mask>
<g mask="url(#mask0_1_912)">
<path d="M41.81 93.457C15.595 122.952 -16.151 183.775 -9.038 195.4C-1.115 208.349 36.708 166.348 35.407 164.446C34.302 162.83 46.598 126.447 55.526 99.841C64.445 73.26 48.293 86.164 41.81 93.457Z" fill="white"/>
<path d="M41.81 93.457C15.595 122.952 -16.151 183.775 -9.038 195.4C-1.115 208.349 36.708 166.348 35.407 164.446C34.302 162.83 46.598 126.447 55.526 99.841C64.445 73.26 48.293 86.164 41.81 93.457Z" fill="#1B4B4C"/>
<path d="M16.517 208.849L23.101 164.236C23.101 164.236 12.547 145.81 18.669 132.586C21.761 125.888 42.953 93.155 54.369 84.869C65.079 77.096 79.748 84.185 84.738 90.947C99.084 110.389 106.074 145.383 114.084 208.849H16.517Z" fill="#1B4B4C"/>
<path d="M35.722 105.44C33.556 108.412 31.453 111.429 29.385 114.471C29.949 113.287 30.517 112.106 31.073 110.919C31.113 110.833 30.988 110.762 30.944 110.847C30.175 112.334 29.467 113.842 28.777 115.361C26.015 119.453 23.331 123.598 20.743 127.802C19.645 129.585 18.638 131.402 17.897 133.366C17.18 135.267 16.735 137.268 16.499 139.284C16.263 141.304 16.246 143.333 16.402 145.359C16.563 147.446 16.815 149.513 17.283 151.555C17.811 153.858 18.531 156.15 19.465 158.323C19.924 159.39 20.413 160.451 20.94 161.486C21.421 162.431 22.402 164.362 22.388 164.436C22.19 165.504 21.99 166.254 21.855 167.152C21.717 168.067 21.579 168.983 21.441 169.898C21.165 171.729 18.788 189.547 18.52 191.38C17.987 195.018 17.53 198.659 17.076 202.308C16.815 204.401 16.679 206.513 16.384 208.601C16.372 208.685 16.5 208.72 16.515 208.634C16.816 206.814 17.267 205.02 17.598 203.205C17.929 201.388 18.265 199.573 18.605 197.758C19.293 194.09 21.942 174.402 22.516 170.715C22.675 169.695 22.834 168.676 22.993 167.656C23.151 166.643 23.421 165.281 23.382 164.253C23.382 164.253 20.115 157.541 18.846 152.834C18.313 150.858 17.768 148.804 17.548 146.766C17.332 144.763 17.31 142.745 17.474 140.737C17.638 138.729 18.016 136.738 18.631 134.819C19.266 132.839 20.177 130.996 21.195 129.187C23.328 125.397 25.595 121.676 27.894 117.985C30.501 113.799 33.138 109.63 35.834 105.501C35.88 105.431 35.769 105.375 35.722 105.44Z" fill="#D4CAFF"/>
<path d="M91.766 100.189C120.018 136.142 130.677 200.726 114.996 205.76C100.667 210.36 41.734 195.613 24.181 189.65C19.025 187.898 34.95 147.811 40.465 149.677C47.131 151.932 83.579 160.569 84.286 160.585C85.8 160.62 77.701 120.857 74.225 102.839C69.384 77.736 81.157 86.688 91.766 100.189Z" fill="white"/>
<path d="M83.757 158.956C84.213 158.683 75.747 120.305 72.907 100.279C70.068 80.253 79.012 82.177 91.883 99.297C105.669 117.636 130.216 167.279 121.712 204.039C118.958 215.943 33.678 199.267 33.678 199.267L45.17 150.252C45.17 150.252 83.052 159.378 83.757 158.956Z" fill="#1B4B4C"/>
<path d="M83.335 159.349C83.367 159.264 77.922 134.074 77.408 133.156C76.881 132.206 75.74 130.094 75.273 129.109C74.331 127.123 73.513 125.093 72.645 123.082C72.573 122.916 72.824 122.787 72.896 122.954C73.834 124.899 74.938 126.765 76.053 128.607C76.608 129.512 77.162 130.425 77.718 131.322C77.76 131.382 75.039 116.963 74.658 114.431C74.627 114.245 74.832 114.192 74.889 114.349C75.707 116.898 83.956 156.279 84.738 159.479C84.738 159.479 84.197 159.469 83.335 159.349Z" fill="#D4CAFF"/>
<path d="M55.342 84.211C52.401 86.451 36.14 113.117 37.47 115.112C38.8 117.107 62.327 119.435 64.156 118.105C65.985 116.775 74.269 85.285 74.269 85.285L55.342 84.211Z" fill="white"/>
<path d="M74.27 85.284C73.77 86.978 64.938 97.655 57.111 96.839C54.562 96.568 55.417 82.592 55.417 82.592L55.244 81.546L52.836 66.9L70.446 56.97L72.983 55.668C72.983 55.668 73.378 59.719 73.818 64.767C73.84 65.001 73.861 65.235 73.881 65.486C73.914 65.771 73.947 66.039 73.965 66.307C74.041 67.06 74.114 67.83 74.172 68.598C74.219 69.182 74.266 69.75 74.292 70.366C74.334 70.983 74.362 71.582 74.405 72.199C74.69 78.287 74.471 84.564 74.27 85.284Z" fill="white"/>
<path d="M73.819 64.766C69.018 76.039 59.556 80.206 55.244 81.545L52.836 66.899L70.446 56.969L72.983 55.667C72.983 55.667 73.378 59.718 73.819 64.766Z" fill="#1B4B4C"/>
<path d="M88.288 42.402C89.867 43.742 92.132 44.183 94.065 43.344C95.963 42.517 97.19 40.601 97.315 38.567C99.097 39.887 101.441 40.314 103.384 38.874C105.394 37.384 105.7 34.786 104.572 32.664C104.564 32.648 104.536 32.659 104.543 32.676C105.359 34.718 105.033 37.192 103.16 38.542C101.559 39.696 99.827 39.499 98.295 38.682C99.922 38.904 101.63 38.627 102.931 37.568C104.357 36.405 105.027 34.427 104.475 32.678C106.486 32.097 108.431 30.777 109.166 28.743C109.787 27.033 109.409 25.023 108.073 23.791C109.918 22.836 111.149 20.793 110.955 18.686C110.777 16.707 109.413 15.012 107.604 14.284C110.277 12.64 110.348 8.70204 107.685 6.96504C108.538 6.22204 108.801 4.99702 108.47 3.90202C108.093 2.63902 107.014 1.78203 105.881 1.17603C106.172 0.047035 105.947 -1.21398 105.126 -2.08898C104.03 -3.25798 102.309 -3.35899 101.035 -2.51699C100.114 -4.39499 98.853 -6.30497 96.849 -7.11297C95.201 -7.77697 93.151 -7.59796 91.896 -6.28496C89.799 -9.42296 85.468 -10.03 82.58 -7.58397C81.385 -8.59697 79.7 -8.82399 78.222 -8.28899C76.733 -7.75099 75.912 -6.99497 75.558 -6.60097C74.412 -7.42697 72.833 -7.37799 71.692 -6.54299C70.569 -5.72099 70.144 -4.48699 70.037 -3.18499C69.823 -2.90199 69.569 -2.67199 69.186 -2.46499C67.461 -1.53099 66.333 0.0720291 66.117 2.02003C63.838 2.40403 62.365 4.93102 63.147 7.10102C61.052 8.17502 60.215 10.976 61.358 13.027C59.81 14.046 58.73 15.685 58.493 17.54C58.31 18.961 58.718 20.624 60.008 21.337C59.124 22.038 59.242 23.437 59.872 24.332C60.111 24.672 60.409 24.968 60.715 25.245C61.082 25.573 61.637 25.895 61.867 26.34C62.111 26.798 61.965 27.382 61.988 27.874C62.006 28.227 62.063 28.581 62.154 28.924C62.855 31.514 65.462 33.361 68.119 33.14C68.22 35.044 69.85 36.343 71.546 36.979C72.106 37.188 72.672 37.299 73.255 37.408C73.794 37.508 74.257 37.628 74.672 38.022C74.922 38.261 75.116 38.555 75.365 38.797C76.213 39.616 77.34 39.709 78.456 39.677C78.931 44.755 85.075 45.789 88.288 42.402ZM71.473 -5.79397C72.561 -6.87597 74.07 -7.08798 75.451 -6.48098C75.382 -6.39598 75.339 -6.33697 75.339 -6.33697C75.339 -6.33697 74.863 -6.40997 74.628 -6.41997C74.199 -6.43297 73.769 -6.37897 73.353 -6.26797C72.489 -6.03797 71.689 -5.54898 71.103 -4.87398C70.839 -4.57098 70.636 -4.23098 70.455 -3.87398C70.431 -3.82598 70.407 -3.78898 70.384 -3.74398C70.578 -4.49798 70.879 -5.20297 71.473 -5.79397ZM104.809 -0.949972C103.996 -2.08597 102.51 -2.63198 101.175 -2.23498C101.159 -2.26798 101.141 -2.30199 101.125 -2.33599C102.436 -2.93499 103.797 -3.11898 104.918 -1.88198C105.701 -1.01798 105.77 -0.000981688 105.51 0.984018C105.504 0.981018 105.497 0.977009 105.491 0.974009C105.442 0.294009 105.23 -0.365972 104.809 -0.949972ZM78.684 39.67C78.701 39.669 78.718 39.669 78.735 39.669C79.937 42.857 83.383 44.306 86.374 43.286C83.152 44.644 79.579 43.948 78.684 39.67Z" fill="#1B4B4C"/>
<path d="M33.406 46.479C31.667 72.471 47.039 76.448 52.644 76.816C57.733 77.151 75.101 77.644 79.516 51.971C83.931 26.298 72.396 17.273 60.799 15.891C49.202 14.51 35.145 20.487 33.406 46.479Z" fill="white"/>
<path d="M41.249 41.587C41.863 41.626 42.437 41.56 43.047 41.535C43.737 41.508 44.289 41.557 44.871 41.133C45.184 40.905 45.264 40.343 45.072 40.02C44.623 39.265 43.77 39.089 42.938 39.088C42.035 39.087 41.339 39.317 40.64 39.885C39.963 40.435 40.438 41.536 41.249 41.587Z" fill="#1B4B4C"/>
<path d="M59.359 42.103C58.749 42.02 58.2 41.841 57.606 41.697C56.935 41.534 56.384 41.473 55.897 40.942C55.636 40.658 55.668 40.09 55.921 39.811C56.51 39.159 57.381 39.155 58.196 39.318C59.081 39.496 59.718 39.859 60.291 40.554C60.847 41.228 60.163 42.212 59.359 42.103Z" fill="#1B4B4C"/>
<path d="M55.321 47.79C55.337 47.723 55.456 47.88 55.451 47.953C55.318 49.723 55.464 51.772 57.042 52.429C57.091 52.45 57.082 52.538 57.023 52.528C55.078 52.168 54.911 49.446 55.321 47.79Z" fill="#1B4B4C"/>
<path d="M56.983 46.008C59.843 45.914 59.819 51.641 57.17 51.727C54.563 51.812 54.586 46.086 56.983 46.008Z" fill="#1B4B4C"/>
<path d="M58.106 46.315C58.605 46.641 59.093 47.215 59.695 47.277C60.393 47.349 60.922 46.752 61.38 46.177C61.427 46.117 61.477 46.168 61.477 46.243C61.489 47.34 61.062 48.464 59.886 48.623C58.812 48.768 58.046 47.793 57.777 46.689C57.727 46.484 57.905 46.184 58.106 46.315Z" fill="#1B4B4C"/>
<path d="M44.499 46.482C44.486 46.414 44.359 46.564 44.36 46.637C44.393 48.411 44.132 50.449 42.52 51.016C42.47 51.034 42.474 51.123 42.534 51.115C44.495 50.866 44.814 48.158 44.499 46.482Z" fill="#1B4B4C"/>
<path d="M42.94 44.609C40.09 44.355 39.791 50.073 42.431 50.308C45.029 50.541 45.329 44.822 42.94 44.609Z" fill="#1B4B4C"/>
<path d="M41.728 44.923C41.26 45.203 40.784 45.73 40.243 45.737C39.615 45.745 39.185 45.103 38.816 44.489C38.778 44.425 38.73 44.471 38.724 44.546C38.636 45.637 38.938 46.795 39.977 47.059C40.925 47.301 41.677 46.4 41.994 45.325C42.054 45.126 41.916 44.811 41.728 44.923Z" fill="#1B4B4C"/>
<path d="M53.572 61.549C53.165 61.982 52.765 62.57 52.124 62.651C51.509 62.728 50.775 62.48 50.201 62.284C50.144 62.264 50.09 62.327 50.128 62.378C50.616 63.039 51.602 63.425 52.417 63.247C53.213 63.074 53.582 62.364 53.746 61.622C53.769 61.518 53.631 61.486 53.572 61.549Z" fill="#1B4B4C"/>
<path d="M46.258 55.021C46.258 55.021 45.851 57.664 45.83 58.914C45.829 59.031 46.13 59.091 46.554 59.122C46.574 59.129 46.585 59.137 46.603 59.124C48.804 59.504 51.037 58.777 52.407 56.997C52.495 56.876 52.339 56.745 52.224 56.821C50.558 58.004 48.733 58.287 46.776 58.289C46.693 57.942 47.626 53.786 47.428 53.768C46.746 53.699 45.393 54.142 44.581 54.366C45.271 48.836 46.842 43.462 47.446 37.945C47.464 37.748 47.182 37.684 47.121 37.859C45.076 43.376 44.142 49.722 43.283 55.415C43.168 56.123 45.755 55.226 46.258 55.021Z" fill="#1B4B4C"/>
<path d="M46.952 58.648C46.952 58.648 48.041 60.325 49.632 61.004C50.218 61.256 50.859 61.381 51.546 61.242C52.959 60.963 53.072 59.689 52.884 58.582C52.733 57.672 52.365 56.873 52.365 56.873C52.365 56.873 50.218 58.648 46.952 58.648Z" fill="#1B4B4C"/>
<path d="M49.632 61.004C50.218 61.256 50.859 61.381 51.546 61.242C52.959 60.963 53.072 59.689 52.884 58.582C51.385 58.643 49.848 59.563 49.632 61.004Z" fill="#FC8E44"/>
<path d="M80.012 52.052C75.604 52.295 74.798 43.048 74.798 43.048C74.798 43.048 65.856 42.877 63.191 29.956C63.191 29.956 63.252 35.945 66.914 40.674C66.914 40.674 51.187 38.655 44.84 25.316C44.84 25.316 47.339 32.094 49.77 34.539C49.77 34.539 43.198 32.549 40.092 27.108C40.092 27.108 37.164 34.662 34.993 36.718C34.993 36.718 36.252 9.14802 61.742 12.645C61.742 12.645 77.72 14.06 83.186 26.853C88.652 39.645 80.012 52.052 80.012 52.052Z" fill="#1B4B4C"/>
<path d="M74.354 53.147C74.354 53.147 79.877 44.905 83.607 46.859C87.336 48.813 83.294 60.682 78.995 62.38C74.696 64.078 73.047 60.129 73.047 60.129L74.354 53.147Z" fill="white"/>
<path d="M82.363 50.233C82.433 50.225 82.448 50.323 82.388 50.348C79.375 51.638 77.833 54.485 76.771 57.427C77.652 56.286 78.869 55.646 80.396 56.691C80.476 56.746 80.403 56.871 80.317 56.855C79.068 56.613 78.175 56.847 77.354 57.859C76.773 58.576 76.384 59.476 75.974 60.299C75.837 60.573 75.344 60.438 75.442 60.123C75.449 60.1 75.458 60.076 75.465 60.052C75.312 56.182 78.214 50.705 82.363 50.233Z" fill="#1B4B4C"/>
<path d="M79.241 60.935H77.689V81.054H79.241V60.935Z" fill="#D4CAFF"/>
<path d="M80.985 61.288C80.942 62.536 84.579 58.308 84.758 57.673C84.936 57.038 87.408 55.194 88.047 53.957C88.686 52.72 89.924 49.112 90.018 48.243C90.113 47.374 91.694 45.196 91.677 43.667C91.659 42.138 90.959 28.51 81.746 19.43C72.533 10.35 64.401 9.81501 64.401 9.81501C64.401 9.81501 58.71 8.85501 52.033 9.36701C45.355 9.87901 35.862 25.612 35.84 25.957C35.818 26.302 36.279 27.356 35.971 28.299C35.663 29.243 34.651 30.227 35.178 31.121C35.705 32.015 34.378 34.35 34.405 35.317C34.432 36.284 34.689 36.527 34.523 37.187C34.357 37.847 37.358 20.848 57.763 14.791C57.763 14.791 81.916 34.473 80.985 61.288Z" fill="#D4CAFF"/>
<path d="M34.555 37.002C34.552 37.06 34.54 37.119 34.521 37.185C34.506 37.239 34.515 37.174 34.555 37.002Z" fill="#D4CAFF"/>
<path d="M34.555 37.002C34.552 37.06 34.539 37.123 34.522 37.186C34.506 37.239 34.516 37.175 34.555 37.002Z" fill="#D4CAFF"/>
<path opacity="0.3" d="M43.804 19.365C43.545 20.288 42.586 20.827 41.658 20.566C40.951 20.367 40.47 19.761 40.403 19.074C40.403 19.074 40.399 19.073 40.404 19.07C40.872 18.443 41.368 17.81 41.883 17.174L41.884 17.17C42.118 17.137 42.36 17.151 42.598 17.218C43.526 17.478 44.063 18.441 43.804 19.365ZM51.249 15.802C50.321 15.542 49.362 16.08 49.103 17.003C48.965 17.494 49.049 17.993 49.301 18.392C50.266 17.833 51.291 17.3 52.378 16.801C52.182 16.329 51.777 15.95 51.249 15.802ZM39.769 24.941C38.841 24.68 37.882 25.219 37.622 26.146C37.382 26.999 37.821 27.88 38.624 28.218C39.22 27.344 39.897 26.448 40.663 25.546C40.442 25.26 40.139 25.044 39.769 24.941ZM74.974 13.985C74.769 14.188 74.616 14.445 74.533 14.741C74.274 15.664 74.812 16.623 75.735 16.883C76.563 17.116 77.422 16.711 77.777 15.958C76.815 15.211 75.875 14.561 74.974 13.985ZM76.329 28.501C75.405 28.241 74.445 28.78 74.185 29.705C73.925 30.629 74.464 31.589 75.389 31.849C76.313 32.109 77.273 31.57 77.533 30.645C77.792 29.721 77.253 28.761 76.329 28.501ZM56.463 9.22001L56.459 9.21904C55.415 9.21304 54.301 9.23203 53.153 9.29503L53.149 9.30702C52.89 10.23 53.427 11.194 54.35 11.453C55.273 11.712 56.233 11.17 56.493 10.246C56.592 9.89801 56.575 9.54301 56.463 9.22001ZM64.72 11.983C63.795 11.723 62.835 12.262 62.576 13.187C62.316 14.111 62.855 15.071 63.78 15.331C64.705 15.591 65.665 15.052 65.924 14.127C66.183 13.203 65.644 12.243 64.72 11.983ZM69.739 20.333C68.815 20.073 67.855 20.612 67.595 21.537C67.335 22.461 67.874 23.421 68.799 23.681C69.723 23.941 70.683 23.402 70.943 22.477C71.202 21.553 70.663 20.593 69.739 20.333ZM82.774 22.189C81.85 21.929 80.89 22.468 80.63 23.393C80.37 24.317 80.909 25.277 81.834 25.537C82.758 25.797 83.718 25.258 83.978 24.333C84.237 23.408 83.698 22.449 82.774 22.189ZM82.979 35.416C82.055 35.156 81.095 35.695 80.835 36.62C80.575 37.544 81.114 38.504 82.039 38.764C82.963 39.024 83.923 38.485 84.183 37.561C84.442 36.635 83.903 35.675 82.979 35.416ZM81.722 55.013C81.389 54.919 81.059 54.93 80.754 55.024C80.877 56.136 80.955 57.266 80.984 58.405C81.84 58.538 82.682 58.016 82.923 57.159C83.184 56.231 82.646 55.272 81.722 55.013ZM77.47 41.074C77.337 41.037 77.203 41.017 77.07 41.011C77.479 41.983 77.86 42.974 78.214 43.985C78.429 43.781 78.587 43.52 78.672 43.216C78.932 42.292 78.394 41.333 77.47 41.074ZM88.794 30.334C88.12 30.418 87.527 30.898 87.332 31.593C87.073 32.516 87.611 33.476 88.534 33.735C89.017 33.87 89.511 33.789 89.912 33.543C89.597 32.507 89.227 31.429 88.794 30.334ZM85.257 45.403C84.333 45.143 83.373 45.682 83.113 46.607C82.853 47.531 83.392 48.491 84.317 48.751C85.241 49.011 86.201 48.472 86.461 47.547C86.721 46.622 86.182 45.663 85.257 45.403ZM88.448 51.136C88.309 51.631 88.399 52.141 88.66 52.537C88.973 51.727 89.307 50.776 89.568 49.96C89.039 50.135 88.609 50.562 88.448 51.136ZM91.284 39.6C90.492 39.561 89.751 40.071 89.528 40.866C89.268 41.794 89.806 42.753 90.729 43.012C91.041 43.1 91.356 43.098 91.648 43.014C91.61 42.29 91.514 41.101 91.284 39.6Z" fill="white"/>
<path opacity="0.1" d="M84.758 57.673C84.946 56.452 84.862 55.214 84.806 53.986C84.749 52.756 84.65 51.527 84.54 50.299C84.317 47.845 84.079 45.389 83.732 42.953C83.646 42.346 83.569 41.73 83.444 41.143C83.306 40.58 83.034 40.03 82.757 39.485C82.198 38.396 81.554 37.344 80.93 36.282C80.298 35.224 79.646 34.177 78.986 33.135L77.01 30.004C78.478 31.99 79.878 34.025 81.212 36.107C81.884 37.145 82.519 38.207 83.105 39.304C83.391 39.854 83.682 40.415 83.846 41.051C83.984 41.67 84.067 42.279 84.159 42.893C84.472 45.349 84.717 47.807 84.869 50.274C84.939 51.508 85.002 52.742 85.016 53.979C85.021 54.597 85.015 55.216 84.985 55.834C84.96 56.451 84.915 57.074 84.758 57.673Z" fill="#050400"/>
<path opacity="0.1" d="M83.382 32.289C84.37 33.383 85.243 34.576 86.061 35.804C86.877 37.034 87.619 38.317 88.248 39.657C88.86 41.002 89.43 42.381 89.747 43.835C90.072 45.28 90.231 46.779 90.019 48.243C90.007 47.873 89.999 47.507 89.996 47.141C90.002 46.958 89.978 46.777 89.95 46.595L89.876 46.052C89.851 45.872 89.838 45.69 89.806 45.511L89.687 44.977C89.599 44.623 89.549 44.262 89.425 43.917L89.106 42.873L88.724 41.849C88.606 41.505 88.452 41.173 88.309 40.838C88.164 40.503 88.025 40.166 87.858 39.841C87.248 38.514 86.524 37.241 85.782 35.98C85.412 35.348 85.019 34.729 84.615 34.117C84.222 33.496 83.805 32.891 83.382 32.289Z" fill="#050400"/>
<path opacity="0.1" d="M36.188 27.525C36.803 26.259 37.675 25.145 38.506 24.022C39.349 22.903 40.238 21.821 41.14 20.751C42.063 19.695 42.943 18.618 43.983 17.644C45.035 16.697 46.216 15.907 47.486 15.313C46.895 15.688 46.318 16.081 45.776 16.517C45.226 16.941 44.697 17.392 44.212 17.884C43.731 18.375 43.281 18.905 42.827 19.436L41.469 21.03L38.765 24.228C38.313 24.76 37.872 25.301 37.436 25.845C36.994 26.386 36.562 26.933 36.188 27.525Z" fill="#050400"/>
<path opacity="0.1" d="M35.3 31.752C35.673 30.811 36.157 29.921 36.652 29.042C37.15 28.163 37.694 27.311 38.285 26.485C38.587 26.078 38.898 25.67 39.249 25.296C39.604 24.938 39.951 24.572 40.315 24.222L41.396 23.164C41.768 22.822 42.128 22.471 42.509 22.139C42.199 22.539 41.869 22.92 41.55 23.31L40.559 24.448C40.232 24.83 39.888 25.196 39.553 25.57C39.224 25.938 38.926 26.334 38.634 26.739C38.044 27.544 37.495 28.384 36.934 29.216C36.655 29.633 36.381 30.054 36.111 30.478C35.831 30.895 35.567 31.322 35.3 31.752Z" fill="#050400"/>
<path opacity="0.1" d="M79.832 17.652C76.417 19.152 68.593 22.483 66.801 22.361C66.383 22.333 65.758 22.207 64.997 22.025C60.968 17.406 57.762 14.791 57.762 14.791C55.206 15.55 52.922 16.478 50.885 17.531C48.701 16.231 46.3 14.075 45.431 13.27C47.659 11.123 49.979 9.52599 52.034 9.36699C58.712 8.85499 64.401 9.81599 64.401 9.81599C64.401 9.81599 71.434 10.28 79.832 17.652Z" fill="#050400"/>
<path d="M58.929 11.022C58.929 11.022 51.92 2.25399 42.16 2.34599C42.16 2.34599 43.712 11.844 47.482 14.574C49.357 15.932 56.979 15.661 57.708 14.3C58.438 12.939 58.929 11.022 58.929 11.022Z" fill="#D4CAFF"/>
<path opacity="0.3" d="M50.708 4.48401C50.283 4.92601 49.631 5.12401 48.998 4.94601C48.216 4.72601 47.713 4.01001 47.728 3.23801C48.785 3.58101 49.774 4.00701 50.708 4.48401ZM45.051 8.72501C44.648 8.61201 44.233 8.64802 43.879 8.80902C44.276 9.90302 44.758 10.999 45.315 11.972C45.758 11.769 46.11 11.379 46.253 10.871C46.512 9.948 45.975 8.98401 45.051 8.72501ZM55.292 8.104C54.368 7.844 53.408 8.38301 53.148 9.30801C52.888 10.232 53.427 11.192 54.352 11.452C55.276 11.712 56.236 11.173 56.496 10.248C56.755 9.32402 56.216 8.364 55.292 8.104Z" fill="white"/>
<path opacity="0.1" d="M58.93 11.028C58.93 11.028 58.432 12.935 57.711 14.288C57.688 14.342 57.646 14.403 57.578 14.452C57.536 14.513 57.467 14.563 57.379 14.62C57.322 14.643 57.272 14.685 57.195 14.716C56.374 15.156 54.766 15.403 53.053 15.446C53.105 14.139 53.265 12.435 53.58 11.177C53.854 10.091 54.984 9.03902 56.133 8.20102C57.935 9.76402 58.93 11.028 58.93 11.028Z" fill="#050400"/>
<path d="M61.441 12.042C61.441 12.042 74.595 8.32801 81.401 10.443C81.401 10.443 78.744 17.861 72.244 20.413C69.332 21.557 59.856 17.174 60.139 15.538C60.422 13.902 61.441 12.042 61.441 12.042Z" fill="#D4CAFF"/>
<path opacity="0.3" d="M77.88 15.68C77.62 16.604 76.66 17.144 75.736 16.884C74.812 16.624 74.273 15.664 74.532 14.74C74.792 13.815 75.752 13.276 76.676 13.536C77.601 13.795 78.139 14.755 77.88 15.68ZM64.72 11.983C63.795 11.723 62.835 12.262 62.576 13.187C62.316 14.111 62.855 15.071 63.78 15.331C64.705 15.591 65.665 15.052 65.924 14.127C66.183 13.203 65.644 12.243 64.72 11.983ZM69.74 20.332C69.445 20.249 69.149 20.247 68.869 20.316C69.342 20.422 69.794 20.504 70.218 20.547C70.074 20.453 69.915 20.381 69.74 20.332Z" fill="white"/>
<path opacity="0.1" d="M64.448 11.297C64.847 12.512 65.2 14.277 64.754 15.764C64.51 16.594 63.934 17.423 63.263 18.18C61.386 17.204 60.04 16.17 60.138 15.531C60.419 13.91 61.442 12.037 61.442 12.037C61.442 12.037 62.614 11.7 64.448 11.297Z" fill="#050400"/>
<path d="M63.219 14.907C62.363 17.205 59.806 18.374 57.508 17.518C55.21 16.662 54.04 14.105 54.897 11.807C55.753 9.50902 58.31 8.34003 60.608 9.19603C62.906 10.052 64.075 12.609 63.219 14.907Z" fill="#D4CAFF"/>
</g>
</svg>
