<svg width="124" height="124" viewBox="0 0 124 124" fill="none" xmlns="http://www.w3.org/2000/svg">
<path d="M61.853 123.706C96.0135 123.706 123.706 96.0135 123.706 61.853C123.706 27.6925 96.0135 0 61.853 0C27.6925 0 0 27.6925 0 61.853C0 96.0135 27.6925 123.706 61.853 123.706Z" fill="#FC8E44"/>
<mask id="mask0_1_514" style="mask-type:luminance" maskUnits="userSpaceOnUse" x="0" y="0" width="124" height="124">
<path d="M61.853 123.706C96.0135 123.706 123.706 96.0135 123.706 61.853C123.706 27.6925 96.0135 0 61.853 0C27.6925 0 0 27.6925 0 61.853C0 96.0135 27.6925 123.706 61.853 123.706Z" fill="white"/>
</mask>
<g mask="url(#mask0_1_514)">
<path d="M41.81 95.129C15.595 124.624 -16.151 185.447 -9.038 197.072C-1.115 210.021 36.708 168.02 35.407 166.118C34.302 164.502 46.598 128.119 55.526 101.513C64.445 74.932 48.293 87.835 41.81 95.129Z" fill="white"/>
<path d="M41.81 95.129C15.595 124.624 -16.151 185.447 -9.038 197.072C-1.115 210.021 36.708 168.02 35.407 166.118C34.302 164.502 46.598 128.119 55.526 101.513C64.445 74.932 48.293 87.835 41.81 95.129Z" fill="#6EBEB5"/>
<path d="M58.097 90.783C58.067 91.263 58.007 91.773 57.917 92.323H44.527C45.057 91.803 45.617 91.293 46.187 90.783H58.097Z" fill="#FC8E44"/>
<path d="M56.637 97.973C56.487 98.473 56.337 98.983 56.167 99.523H38.057C38.487 98.993 38.917 98.483 39.347 97.973H56.637Z" fill="#FC8E44"/>
<path d="M54.297 105.173C54.127 105.683 53.957 106.203 53.777 106.713H32.407C32.787 106.193 33.177 105.683 33.567 105.173H54.297Z" fill="#FC8E44"/>
<path d="M51.887 112.363C51.717 112.873 51.547 113.383 51.367 113.903H27.177C27.547 113.393 27.907 112.873 28.267 112.363H51.887Z" fill="#FC8E44"/>
<path d="M49.477 119.553C49.307 120.063 49.137 120.573 48.967 121.093H22.307C22.647 120.573 22.987 120.063 23.327 119.553H49.477Z" fill="#FC8E44"/>
<path d="M16.517 210.52L23.101 165.907C23.101 165.907 12.547 147.481 18.669 134.257C21.761 127.559 42.953 94.826 54.369 86.54C65.079 78.767 79.748 85.856 84.738 92.618C99.084 112.06 106.074 147.054 114.084 210.52H16.517Z" fill="#6EBEB5"/>
<path d="M35.722 107.111C33.556 110.083 31.453 113.1 29.385 116.142C29.949 114.958 30.517 113.777 31.073 112.59C31.113 112.504 30.988 112.433 30.944 112.518C30.175 114.006 29.467 115.513 28.777 117.032C26.015 121.124 23.331 125.269 20.743 129.473C19.645 131.256 18.638 133.073 17.897 135.037C17.18 136.938 16.735 138.939 16.499 140.955C16.263 142.975 16.246 145.004 16.402 147.03C16.563 149.117 16.815 151.184 17.283 153.226C17.811 155.529 18.531 157.821 19.465 159.994C19.924 161.061 20.412 162.122 20.94 163.157C21.421 164.102 22.402 166.033 22.388 166.107C22.19 167.175 21.99 167.925 21.855 168.823C21.717 169.738 21.579 170.654 21.441 171.569C21.165 173.4 18.788 191.218 18.52 193.051C17.987 196.689 17.53 200.33 17.076 203.979C16.815 206.072 16.679 208.185 16.384 210.272C16.372 210.356 16.5 210.391 16.515 210.305C16.816 208.486 17.267 206.691 17.598 204.877C17.929 203.06 18.265 201.245 18.605 199.43C19.293 195.762 21.941 176.075 22.516 172.387C22.675 171.367 22.834 170.348 22.993 169.328C23.151 168.315 23.421 166.953 23.382 165.925C23.382 165.925 20.115 159.212 18.846 154.506C18.313 152.53 17.768 150.476 17.548 148.438C17.332 146.435 17.31 144.417 17.474 142.409C17.639 140.401 18.016 138.41 18.631 136.491C19.266 134.511 20.177 132.668 21.195 130.859C23.328 127.069 25.595 123.348 27.894 119.657C30.501 115.471 33.138 111.302 35.834 107.173C35.88 107.103 35.769 107.047 35.722 107.111Z" fill="#1B4B4C"/>
<path d="M74.537 85.133H56.657C58.047 84.413 59.477 83.913 60.927 83.593H69.537C71.267 83.943 72.947 84.473 74.537 85.133Z" fill="#FC8E44"/>
<path d="M84.517 92.323H48.127C48.627 91.783 49.117 91.273 49.597 90.783H83.147C83.657 91.293 84.117 91.813 84.517 92.323Z" fill="#FC8E44"/>
<path d="M89.157 99.523H41.977C42.397 99.003 42.817 98.483 43.227 97.973H88.267C88.577 98.473 88.867 98.993 89.157 99.523Z" fill="#FC8E44"/>
<path d="M92.737 106.713H36.477C36.857 106.203 37.237 105.683 37.627 105.173H92.037C92.277 105.683 92.507 106.193 92.737 106.713Z" fill="#FC8E44"/>
<path d="M95.617 113.903H31.367C31.717 113.393 32.077 112.883 32.437 112.363H95.047C95.237 112.863 95.427 113.383 95.617 113.903Z" fill="#FC8E44"/>
<path d="M98.017 121.093H26.547C26.867 120.583 27.207 120.073 27.547 119.553H97.537C97.697 120.063 97.857 120.573 98.017 121.093Z" fill="#FC8E44"/>
<path d="M91.766 101.86C120.018 137.813 130.677 202.397 114.996 207.431C100.667 212.031 41.734 197.284 24.181 191.321C19.025 189.569 34.95 149.482 40.465 151.348C47.131 153.604 83.579 162.24 84.286 162.256C85.8 162.291 77.701 122.528 74.225 104.51C69.384 79.408 81.157 88.359 91.766 101.86Z" fill="white"/>
<path d="M83.757 160.627C84.213 160.354 75.747 121.976 72.907 101.95C70.068 81.924 79.012 83.848 91.883 100.968C105.669 119.307 130.216 168.95 121.712 205.71C118.958 217.614 33.678 200.938 33.678 200.938L45.17 151.923C45.17 151.923 83.052 161.05 83.757 160.627Z" fill="#6EBEB5"/>
<path d="M84.437 92.323H72.587C72.667 91.763 72.767 91.243 72.917 90.783H82.737C83.287 91.243 83.857 91.763 84.437 92.323Z" fill="#FC8E44"/>
<path d="M90.777 99.523H72.607C72.547 98.983 72.507 98.463 72.477 97.973H89.547C89.957 98.473 90.367 98.993 90.777 99.523Z" fill="#FC8E44"/>
<path d="M95.877 106.713H73.627C73.547 106.193 73.467 105.673 73.387 105.173H94.857C95.197 105.673 95.537 106.183 95.877 106.713Z" fill="#FC8E44"/>
<path d="M100.257 113.903H74.847C74.757 113.383 74.667 112.873 74.577 112.363H99.367C99.657 112.873 99.957 113.383 100.257 113.903Z" fill="#FC8E44"/>
<path d="M104.177 121.093H76.157C76.057 120.573 75.967 120.063 75.877 119.553H103.367C103.637 120.053 103.907 120.573 104.177 121.093Z" fill="#FC8E44"/>
<path d="M83.335 161.02C83.367 160.935 78.45 135.478 77.936 134.561C77.409 133.611 76.268 131.499 75.801 130.514C74.859 128.528 74.041 126.498 73.173 124.487C73.1 124.321 73.352 124.192 73.424 124.359C74.361 126.304 75.466 128.17 76.581 130.012C77.136 130.917 77.69 131.83 78.246 132.727C78.288 132.787 75.567 118.369 75.186 115.836C75.155 115.65 75.36 115.597 75.417 115.754C76.235 118.303 83.956 157.95 84.738 161.15C84.738 161.15 84.197 161.14 83.335 161.02Z" fill="#1B4B4C"/>
<path d="M47.426 90.108C47.426 90.108 48.57 101.386 57.919 103.142C67.268 104.898 84.738 92.617 84.738 92.617C84.738 92.617 77.721 83.175 65.045 83.144C52.854 83.115 47.426 90.108 47.426 90.108Z" fill="white"/>
<path d="M74.27 86.956C73.77 88.65 64.938 99.327 57.111 98.511C54.562 98.24 55.417 84.264 55.417 84.264L55.244 83.218L52.836 68.571L70.446 58.641L72.983 57.339C72.983 57.339 73.378 61.389 73.818 66.438C73.84 66.672 73.862 66.906 73.881 67.157C73.914 67.442 73.947 67.71 73.965 67.978C74.041 68.731 74.114 69.501 74.172 70.269C74.219 70.853 74.266 71.421 74.292 72.037C74.334 72.654 74.362 73.253 74.405 73.87C74.69 79.958 74.471 86.235 74.27 86.956Z" fill="white"/>
<path d="M73.819 66.438C69.018 77.711 59.556 81.878 55.244 83.217L52.836 68.57L70.446 58.64L72.983 57.338C72.983 57.338 73.378 61.389 73.819 66.438Z" fill="#1B4B4C"/>
<path d="M81.564 52.787C79.634 67.8 93.533 87.268 84.048 113.966C79.787 125.961 56.943 136.354 55.84 160.605C55.555 166.888 27.423 127.738 61.893 84.533C72.708 70.979 81.564 52.787 81.564 52.787Z" fill="#1B4B4C"/>
<path d="M61.657 87.557C49.232 101.478 38.194 121.019 43.275 140.254C44.76 145.875 47.783 150.752 50.871 155.611C50.927 155.698 51.051 155.6 50.998 155.513C48.319 151.174 45.655 146.736 44.196 141.813C42.816 137.158 42.459 132.222 42.856 127.396C43.646 117.782 47.472 108.764 52.568 100.666C55.411 96.149 58.71 92.011 61.943 87.777C62.086 87.591 61.81 87.385 61.657 87.557Z" fill="#70301C"/>
<path d="M86.205 77.768C84.33 71.629 82.055 65.521 81.488 59.08C81.482 59.006 81.37 59.023 81.374 59.096C82.042 69.57 86.967 79.17 88.174 89.575C89.299 99.273 88.045 109.31 83.657 118.1C81.304 122.815 78.119 126.952 74.266 130.536C74.14 130.653 74.296 130.861 74.434 130.749C81.262 125.17 85.814 117.003 87.911 108.513C90.445 98.256 89.257 87.761 86.205 77.768Z" fill="#70301C"/>
<path d="M76.66 62.684C74.73 67.044 72.147 70.906 69.002 74.483C65.924 77.984 62.538 81.199 59.416 84.659C52.854 91.93 47.282 100.313 44.637 109.829C43.113 115.313 42.756 120.879 43.464 126.516C43.468 126.545 43.512 126.539 43.509 126.51C42.275 116.225 45.68 105.692 50.966 96.97C53.469 92.84 56.42 88.995 59.636 85.398C62.699 81.972 65.976 78.742 68.983 75.265C72.194 71.551 75.334 67.501 76.962 62.81C77.031 62.614 76.747 62.489 76.66 62.684Z" fill="#70301C"/>
<path d="M76.32 68.017H81.893C83.555 68.017 84.903 66.669 84.903 65.007V64.425C84.903 62.763 83.555 61.415 81.893 61.415H76.32C74.658 61.415 73.31 62.763 73.31 64.425V65.007C73.31 66.669 74.658 68.017 76.32 68.017Z" fill="#6EBEB5"/>
<path d="M33.406 48.151C31.667 74.143 47.039 78.12 52.644 78.488C57.733 78.823 75.101 79.316 79.516 53.643C83.931 27.97 72.396 18.945 60.8 17.563C49.202 16.182 35.146 22.158 33.406 48.151Z" fill="white"/>
<path d="M41.305 41.539C41.918 41.49 42.477 41.343 43.078 41.232C43.757 41.107 44.31 41.077 44.826 40.575C45.103 40.305 45.103 39.738 44.866 39.444C44.315 38.761 43.445 38.707 42.622 38.824C41.728 38.951 41.072 39.278 40.461 39.939C39.868 40.581 40.495 41.603 41.305 41.539Z" fill="#1B4B4C"/>
<path d="M59.359 40.449C58.749 40.366 58.2 40.187 57.606 40.043C56.935 39.88 56.384 39.819 55.897 39.288C55.636 39.003 55.668 38.436 55.921 38.157C56.51 37.505 57.381 37.501 58.197 37.664C59.082 37.842 59.719 38.205 60.292 38.9C60.847 39.574 60.163 40.558 59.359 40.449Z" fill="#1B4B4C"/>
<path d="M55.321 49.462C55.337 49.395 55.456 49.552 55.451 49.625C55.318 51.395 55.464 53.444 57.042 54.101C57.091 54.122 57.082 54.21 57.023 54.2C55.078 53.839 54.911 51.117 55.321 49.462Z" fill="#1B4B4C"/>
<path d="M56.983 47.679C59.843 47.585 59.819 53.311 57.17 53.398C54.563 53.483 54.586 47.758 56.983 47.679Z" fill="#1B4B4C"/>
<path d="M58.106 47.986C58.605 48.312 59.093 48.886 59.695 48.948C60.393 49.02 60.922 48.423 61.38 47.848C61.427 47.788 61.477 47.838 61.478 47.914C61.49 49.011 61.063 50.135 59.887 50.294C58.813 50.439 58.047 49.464 57.778 48.36C57.727 48.156 57.905 47.855 58.106 47.986Z" fill="#1B4B4C"/>
<path d="M44.499 48.154C44.486 48.086 44.359 48.236 44.36 48.309C44.393 50.083 44.132 52.121 42.52 52.688C42.47 52.706 42.474 52.795 42.534 52.787C44.495 52.538 44.814 49.829 44.499 48.154Z" fill="#1B4B4C"/>
<path d="M42.94 46.281C40.09 46.027 39.791 51.745 42.431 51.98C45.029 52.212 45.329 46.494 42.94 46.281Z" fill="#1B4B4C"/>
<path d="M41.728 46.594C41.26 46.874 40.784 47.401 40.243 47.408C39.615 47.417 39.185 46.774 38.816 46.16C38.778 46.096 38.73 46.142 38.725 46.217C38.637 47.308 38.939 48.466 39.978 48.73C40.926 48.972 41.678 48.07 41.995 46.996C42.054 46.797 41.916 46.482 41.728 46.594Z" fill="#1B4B4C"/>
<path d="M53.572 63.22C53.165 63.653 52.765 64.241 52.124 64.322C51.509 64.399 50.775 64.151 50.201 63.955C50.144 63.935 50.09 63.998 50.128 64.049C50.616 64.71 51.602 65.096 52.417 64.918C53.213 64.745 53.582 64.035 53.746 63.293C53.769 63.19 53.631 63.157 53.572 63.22Z" fill="#1B4B4C"/>
<path d="M46.258 56.692C46.258 56.692 45.85 59.335 45.83 60.585C45.829 60.702 46.13 60.762 46.554 60.793C46.574 60.8 46.585 60.808 46.603 60.795C48.804 61.175 51.037 60.448 52.407 58.668C52.495 58.547 52.339 58.416 52.224 58.492C50.558 59.675 48.733 59.958 46.776 59.96C46.693 59.613 47.626 55.457 47.428 55.439C46.746 55.37 45.393 55.813 44.581 56.037C45.271 50.507 46.842 45.133 47.446 39.616C47.464 39.419 47.182 39.355 47.121 39.53C45.076 45.046 44.142 51.393 43.283 57.086C43.168 57.795 45.755 56.897 46.258 56.692Z" fill="#1B4B4C"/>
<path d="M46.952 60.32C46.952 60.32 48.041 61.996 49.632 62.676C50.218 62.928 50.859 63.053 51.546 62.914C52.959 62.635 53.072 61.361 52.884 60.254C52.733 59.344 52.365 58.545 52.365 58.545C52.365 58.545 50.218 60.319 46.952 60.32Z" fill="#1B4B4C"/>
<path d="M49.632 62.675C50.218 62.927 50.859 63.052 51.546 62.913C52.959 62.634 53.072 61.36 52.884 60.253C51.385 60.315 49.848 61.235 49.632 62.675Z" fill="#FC8E44"/>
<path d="M77.453 54.332C71.221 53.773 72.24 43.959 72.24 43.959C72.24 43.959 65.24 42.62 65.848 31.17C65.848 31.17 61.771 37.715 52.059 38.17C50.003 38.266 57.316 33.685 57.316 33.685C57.316 33.685 48.447 40.248 33.618 35.958C32.569 35.655 36.421 19.945 48.809 15.681C61.197 11.417 71.576 15.558 78.17 23.758C78.17 23.758 86.46 28.62 86.621 36.941C86.782 45.263 79.875 54.549 77.453 54.332Z" fill="#1B4B4C"/>
<path d="M74.354 54.819C74.354 54.819 79.877 46.577 83.607 48.531C87.336 50.485 83.294 62.354 78.995 64.052C74.696 65.749 73.047 61.801 73.047 61.801L74.354 54.819Z" fill="white"/>
<path d="M82.363 51.904C82.433 51.896 82.448 51.994 82.388 52.019C79.376 53.309 77.833 56.156 76.771 59.098C77.652 57.957 78.869 57.317 80.396 58.362C80.476 58.417 80.403 58.542 80.317 58.526C79.068 58.284 78.175 58.518 77.354 59.53C76.773 60.247 76.384 61.147 75.974 61.97C75.837 62.244 75.344 62.109 75.442 61.794C75.449 61.771 75.458 61.747 75.465 61.723C75.312 57.854 78.214 52.376 82.363 51.904Z" fill="#1B4B4C"/>
</g>
</svg>
