<svg width="124" height="124" viewBox="0 0 124 124" fill="none" xmlns="http://www.w3.org/2000/svg">
<path d="M61.853 123.706C96.0135 123.706 123.706 96.0135 123.706 61.853C123.706 27.6925 96.0135 0 61.853 0C27.6925 0 0 27.6925 0 61.853C0 96.0135 27.6925 123.706 61.853 123.706Z" fill="#FC8E44"/>
<mask id="mask0_1_803" style="mask-type:luminance" maskUnits="userSpaceOnUse" x="0" y="0" width="124" height="124">
<path d="M61.853 123.706C96.0135 123.706 123.706 96.0135 123.706 61.853C123.706 27.6925 96.0135 0 61.853 0C27.6925 0 0 27.6925 0 61.853C0 96.0135 27.6925 123.706 61.853 123.706Z" fill="white"/>
</mask>
<g mask="url(#mask0_1_803)">
<path d="M43.435 95.129C17.22 124.624 -14.526 185.447 -7.41299 197.072C0.510011 210.021 38.333 168.02 37.032 166.118C35.927 164.502 48.223 128.119 57.151 101.513C66.07 74.932 49.918 87.835 43.435 95.129Z" fill="white"/>
<path d="M43.435 95.129C17.22 124.624 -14.526 185.447 -7.41299 197.072C0.510011 210.021 38.333 168.02 37.032 166.118C35.927 164.502 48.223 128.119 57.151 101.513C66.07 74.932 49.918 87.835 43.435 95.129Z" fill="#D4CAFF"/>
<path d="M18.142 210.52L24.726 165.907C24.726 165.907 14.172 147.481 20.295 134.257C23.386 127.559 44.579 94.826 55.995 86.54C66.705 78.767 81.374 85.856 86.364 92.618C100.71 112.06 107.7 147.054 115.71 210.52H18.142Z" fill="#D4CAFF"/>
<path d="M18.601 140.289C17.396 156.224 24.726 165.907 24.726 165.907L18.142 210.52H115.71C115.71 210.52 113.279 164.98 104.617 140.338C102.8 140.381 92.373 149.914 75.613 138.301C65.527 131.313 65.818 111.182 65.818 111.182L37.975 106.294C30.471 116.954 19.144 133.11 18.601 140.289Z" fill="#6EBEB5"/>
<path d="M40.546 106.751L57.523 85.198L54.951 85.948L38.585 106.406L40.546 106.751Z" fill="#6EBEB5"/>
<path d="M61.444 114.031C61.371 114.957 62.062 115.766 62.988 115.839C63.914 115.912 64.723 115.221 64.796 114.296C64.869 113.37 64.178 112.561 63.252 112.488C62.327 112.414 61.517 113.105 61.444 114.031Z" fill="white"/>
<path d="M37.391 108.312C36.904 109.102 37.034 110.067 37.682 110.467C38.33 110.867 39.251 110.551 39.738 109.761C40.225 108.971 40.095 108.006 39.447 107.606C38.799 107.206 37.878 107.522 37.391 108.312Z" fill="white"/>
<path d="M65.817 111.182L77.594 85.773L76.081 84.621L63.856 110.837L65.817 111.182Z" fill="#6EBEB5"/>
<path d="M94.278 101.86C122.53 137.813 133.189 202.397 117.508 207.431C103.179 212.031 44.246 197.284 26.693 191.321C21.537 189.569 37.462 149.482 42.977 151.348C49.643 153.604 86.091 162.24 86.798 162.256C88.312 162.291 80.213 122.528 76.737 104.51C71.895 79.408 83.668 88.359 94.278 101.86Z" fill="white"/>
<path d="M86.268 160.627C86.724 160.354 78.258 121.976 75.418 101.95C72.579 81.924 81.523 83.848 94.394 100.968C108.18 119.307 132.727 168.95 124.223 205.71C121.469 217.614 36.189 200.938 36.189 200.938L47.681 151.923C47.681 151.923 85.563 161.05 86.268 160.627Z" fill="#D4CAFF"/>
<path d="M85.847 161.02C85.879 160.935 79.686 130.823 79.173 129.906C78.646 128.956 77.505 126.844 77.038 125.859C76.096 123.873 75.278 121.843 74.41 119.832C74.337 119.666 74.589 119.537 74.661 119.704C75.599 121.649 76.703 123.515 77.818 125.357C78.373 126.262 78.927 127.175 79.482 128.072C79.524 128.132 76.803 113.713 76.422 111.181C76.391 110.995 76.596 110.942 76.653 111.099C77.471 113.648 86.468 157.951 87.25 161.15C87.25 161.15 86.709 161.14 85.847 161.02Z" fill="#1B4B4C"/>
<path d="M77.472 27.806C75.576 24.377 78.238 15.215 83.686 12.445C91.187 8.63099 101.173 18.98 95.879 26.828C90.576 34.689 78.935 30.453 77.472 27.806Z" fill="#6EBEB5"/>
<path d="M95.317 16.179C93.505 14.048 91.296 12.221 88.81 11.26C87.567 10.807 86.247 10.626 85.019 10.917C83.793 11.193 82.666 11.867 81.748 12.801C80.799 13.697 80.044 14.845 79.343 16.005C78.62 17.156 78.106 18.412 77.665 19.691C76.861 22.263 76.663 25.105 77.472 27.806C76.151 25.298 75.934 22.218 76.633 19.408C76.978 17.999 77.516 16.633 78.217 15.364C78.939 14.117 79.716 12.878 80.802 11.829C81.864 10.789 83.236 9.946 84.768 9.664C86.299 9.382 87.875 9.66199 89.21 10.288C91.903 11.541 93.92 13.746 95.317 16.179Z" fill="#6EBEB5"/>
<path d="M48.45 24.975C44.589 25.639 36.81 20.114 35.984 14.059C34.846 5.721 47.902 -0.309997 53.575 7.269C59.256 14.86 51.43 24.463 48.45 24.975Z" fill="#6EBEB5"/>
<path d="M43.332 4.3C40.724 5.311 38.272 6.79699 36.548 8.82899C35.712 9.85399 35.107 11.041 34.978 12.297C34.836 13.545 35.103 14.831 35.683 16.006C36.218 17.197 37.054 18.287 37.919 19.331C38.768 20.392 39.786 21.291 40.849 22.127C43.014 23.731 45.633 24.852 48.45 24.976C45.647 25.4 42.667 24.592 40.242 23.009C39.024 22.22 37.911 21.263 36.943 20.184C36.003 19.093 35.087 17.952 34.454 16.581C33.821 15.236 33.475 13.663 33.712 12.124C33.948 10.586 34.731 9.189 35.761 8.134C37.83 6.001 40.575 4.82 43.332 4.3Z" fill="#6EBEB5"/>
<path d="M75.895 86.956C75.395 88.65 66.563 99.327 58.736 98.511C56.187 98.24 57.042 84.264 57.042 84.264L56.869 83.218L54.461 68.571L72.071 58.641L74.608 57.339C74.608 57.339 75.003 61.389 75.443 66.438C75.465 66.672 75.487 66.906 75.506 67.157C75.539 67.442 75.573 67.71 75.59 67.978C75.666 68.731 75.739 69.501 75.797 70.269C75.844 70.853 75.891 71.421 75.918 72.037C75.96 72.654 75.988 73.253 76.031 73.87C76.315 79.958 76.096 86.235 75.895 86.956Z" fill="white"/>
<path d="M75.444 66.438C70.644 77.711 61.181 81.878 56.869 83.217L54.461 68.57L72.071 58.64L74.608 57.338C74.608 57.338 75.003 61.389 75.444 66.438Z" fill="#1B4B4C"/>
<path d="M35.031 48.151C33.292 74.143 48.664 78.12 54.269 78.488C59.358 78.823 76.726 79.316 81.141 53.643C85.556 27.97 74.021 18.945 62.425 17.563C50.827 16.182 36.77 22.158 35.031 48.151Z" fill="white"/>
<path d="M42.929 41.539C43.542 41.49 44.101 41.343 44.702 41.232C45.381 41.107 45.935 41.077 46.451 40.575C46.728 40.305 46.727 39.738 46.491 39.444C45.94 38.761 45.07 38.707 44.247 38.824C43.353 38.951 42.697 39.278 42.086 39.939C41.493 40.581 42.12 41.603 42.929 41.539Z" fill="#6EBEB5"/>
<path d="M60.984 43.332C60.374 43.249 59.825 43.07 59.231 42.926C58.56 42.763 58.009 42.702 57.522 42.171C57.261 41.886 57.293 41.319 57.546 41.04C58.134 40.388 59.006 40.384 59.821 40.547C60.706 40.725 61.343 41.088 61.916 41.783C62.472 42.456 61.788 43.441 60.984 43.332Z" fill="#6EBEB5"/>
<path d="M56.946 49.462C56.963 49.395 57.081 49.552 57.076 49.625C56.943 51.395 57.089 53.444 58.667 54.101C58.716 54.122 58.707 54.21 58.648 54.2C56.703 53.839 56.536 51.117 56.946 49.462Z" fill="#1B4B4C"/>
<path d="M58.607 47.679C61.467 47.585 61.444 53.311 58.794 53.398C56.188 53.483 56.211 47.758 58.607 47.679Z" fill="#1B4B4C"/>
<path d="M59.731 47.986C60.23 48.312 60.718 48.886 61.32 48.948C62.018 49.02 62.547 48.423 63.005 47.848C63.052 47.788 63.102 47.838 63.102 47.914C63.114 49.011 62.687 50.135 61.511 50.294C60.437 50.439 59.671 49.464 59.402 48.36C59.351 48.156 59.53 47.855 59.731 47.986Z" fill="#1B4B4C"/>
<path d="M46.124 48.154C46.111 48.086 45.984 48.236 45.986 48.309C46.019 50.083 45.758 52.121 44.146 52.688C44.096 52.706 44.1 52.795 44.159 52.787C46.12 52.538 46.439 49.829 46.124 48.154Z" fill="#1B4B4C"/>
<path d="M44.565 46.281C41.715 46.027 41.416 51.745 44.056 51.98C46.654 52.212 46.953 46.494 44.565 46.281Z" fill="#1B4B4C"/>
<path d="M43.353 46.594C42.885 46.874 42.409 47.401 41.868 47.408C41.24 47.417 40.81 46.774 40.441 46.16C40.403 46.096 40.355 46.142 40.35 46.217C40.262 47.308 40.564 48.466 41.603 48.73C42.55 48.972 43.303 48.07 43.62 46.996C43.679 46.797 43.541 46.482 43.353 46.594Z" fill="#1B4B4C"/>
<path d="M55.197 63.22C54.79 63.653 54.39 64.241 53.749 64.322C53.134 64.399 52.4 64.151 51.826 63.955C51.769 63.935 51.715 63.998 51.753 64.049C52.241 64.71 53.227 65.096 54.042 64.918C54.839 64.745 55.207 64.035 55.371 63.293C55.394 63.19 55.256 63.157 55.197 63.22Z" fill="#1B4B4C"/>
<path d="M47.883 56.692C47.883 56.692 47.475 59.335 47.455 60.585C47.454 60.702 47.755 60.762 48.179 60.793C48.199 60.8 48.21 60.808 48.228 60.795C50.429 61.175 52.662 60.448 54.032 58.668C54.12 58.547 53.964 58.416 53.848 58.492C52.182 59.675 50.357 59.958 48.4 59.96C48.317 59.613 49.25 55.457 49.052 55.439C48.37 55.37 47.017 55.813 46.205 56.037C46.895 50.507 48.466 45.133 49.07 39.616C49.088 39.419 48.806 39.355 48.745 39.53C46.7 45.046 45.766 51.393 44.907 57.086C44.793 57.795 47.38 56.897 47.883 56.692Z" fill="#1B4B4C"/>
<path d="M48.577 60.32C48.577 60.32 49.666 61.996 51.257 62.676C51.843 62.928 52.484 63.053 53.171 62.914C54.584 62.635 54.697 61.361 54.51 60.254C54.359 59.344 53.991 58.545 53.991 58.545C53.991 58.545 51.843 60.319 48.577 60.32Z" fill="#1B4B4C"/>
<path d="M51.257 62.675C51.843 62.927 52.484 63.052 53.171 62.913C54.584 62.634 54.697 61.36 54.51 60.253C53.01 60.315 51.473 61.235 51.257 62.675Z" fill="#FC8E44"/>
<path d="M80.278 53.74C76.024 54.188 74.799 45.278 74.799 45.278C74.799 45.278 66.138 45.544 62.936 33.168C62.936 33.168 63.284 38.96 67.055 43.361C67.055 43.361 51.739 42.165 44.954 29.563C44.954 29.563 47.699 36.002 50.169 38.25C50.169 38.25 43.714 36.641 40.446 31.526C40.446 31.526 37.977 38.977 35.974 41.071C35.974 41.071 35.864 14.331 60.698 16.488C60.698 16.488 76.227 17.088 82.134 29.203C88.041 41.318 80.278 53.74 80.278 53.74Z" fill="#6EBEB5"/>
<path d="M75.979 54.819C75.979 54.819 81.502 46.577 85.232 48.531C88.961 50.485 84.919 62.354 80.62 64.052C76.321 65.749 74.672 61.801 74.672 61.801L75.979 54.819Z" fill="white"/>
<path d="M83.988 51.904C84.058 51.896 84.073 51.994 84.013 52.019C81.001 53.309 79.458 56.156 78.396 59.098C79.277 57.957 80.494 57.317 82.021 58.362C82.101 58.417 82.028 58.542 81.942 58.526C80.693 58.284 79.8 58.518 78.979 59.53C78.398 60.247 78.009 61.147 77.599 61.97C77.462 62.244 76.969 62.109 77.067 61.794C77.074 61.771 77.083 61.747 77.09 61.723C76.937 57.854 79.839 52.376 83.988 51.904Z" fill="#1B4B4C"/>
<path d="M79.678 63.646C80.3783 63.646 80.946 63.0783 80.946 62.378C80.946 61.6777 80.3783 61.11 79.678 61.11C78.9777 61.11 78.41 61.6777 78.41 62.378C78.41 63.0783 78.9777 63.646 79.678 63.646Z" fill="#1B4B4C"/>
<path d="M80.239 62.378C80.239 62.688 79.988 62.939 79.678 62.939C79.368 62.939 79.117 62.688 79.117 62.378C79.117 62.068 79.368 61.817 79.678 61.817C79.988 61.817 80.239 62.068 80.239 62.378Z" fill="#FC8E44"/>
</g>
</svg>
