<svg width="124" height="124" viewBox="0 0 124 124" fill="none" xmlns="http://www.w3.org/2000/svg">
<path d="M61.853 123.706C96.0135 123.706 123.706 96.0135 123.706 61.853C123.706 27.6926 96.0135 0 61.853 0C27.6925 0 0 27.6926 0 61.853C0 96.0135 27.6925 123.706 61.853 123.706Z" fill="#D4CAFF"/>
<mask id="mask0_1_237" style="mask-type:luminance" maskUnits="userSpaceOnUse" x="0" y="0" width="124" height="124">
<path d="M61.853 123.706C96.0135 123.706 123.706 96.0135 123.706 61.853C123.706 27.6926 96.0135 0 61.853 0C27.6925 0 0 27.6926 0 61.853C0 96.0135 27.6925 123.706 61.853 123.706Z" fill="white"/>
</mask>
<g mask="url(#mask0_1_237)">
<path d="M82.308 26.321C76.571 21.424 61.976 16.271 49.584 30.644C31.985 51.057 42.979 101.551 46.273 109.096C46.273 109.096 80.166 118.529 108.17 98.309C108.17 98.309 89.667 65.125 90.967 47.224C91.72 36.854 86.508 29.906 82.308 26.321Z" fill="#1B4B4C"/>
<path d="M95.368 66.214C95.491 66.488 95.604 66.766 95.73 67.039C97.344 70.503 99.246 73.817 101.44 76.921C103.532 79.881 105.803 82.717 108.64 84.952C108.716 85.012 108.822 84.901 108.746 84.836C105.915 82.466 103.848 79.313 101.931 76.151C100.056 73.059 98.353 69.847 96.84 66.548C93.773 59.858 91.405 52.699 90.044 45.407C90.017 45.264 89.777 45.302 89.794 45.449C89.912 46.482 90.054 47.509 90.212 48.531C90.133 48.513 90.043 48.564 90.062 48.682C91.209 55.537 92.541 62.245 95.014 68.724C97.45 75.107 100.864 80.975 104.855 86.431C107.091 89.488 109.485 92.41 112.066 95.162C112.106 95.205 112.165 95.138 112.128 95.095C104.845 86.656 99.435 76.702 95.368 66.214Z" fill="#1B4B4C"/>
<path d="M55.36 27.227C39.295 39.416 35.92 61.178 37.353 80.154C37.793 85.981 38.63 91.815 40.14 97.442C40.167 97.543 40.315 97.505 40.296 97.402C38.43 87.38 37.777 77.397 38.679 67.182C39.514 57.719 41.267 47.858 45.771 39.378C48.19 34.823 51.407 30.591 55.501 27.486C55.65 27.373 55.512 27.112 55.36 27.227Z" fill="#1B4B4C"/>
<path d="M120.98 208.085H13.932C13.483 203.995 29.88 117.006 49.14 89.04C51.325 85.867 70.045 83.557 76.918 91.45C113.32 133.254 121.86 207.081 120.98 208.085Z" fill="#6EBEB5"/>
<path d="M46.268 129.02C45.189 129.568 43.412 130.027 42.682 128.7C41.949 127.397 43.095 125.575 43.763 124.527C44.476 123.418 46.244 121.364 48.117 120.228C49.554 119.22 51.092 118.817 52.252 120.028C54.822 122.73 48.252 128.001 46.268 129.02Z" fill="#1B4B4C"/>
<path d="M82.819 116.092C82.245 117.158 81.048 118.548 79.691 117.875C78.346 117.223 78.247 115.073 78.198 113.831C78.151 112.513 78.431 109.818 79.322 107.816C79.927 106.169 80.96 104.96 82.604 105.293C86.256 106.047 83.866 114.123 82.819 116.092Z" fill="#1B4B4C"/>
<path d="M94.889 118.25C93.589 120.85 91.579 123.34 89.349 122.74C88.039 122.39 87.259 119.15 89.159 114.54C89.689 113.25 90.349 112.18 91.039 111.33C92.379 113.6 93.659 115.91 94.889 118.25Z" fill="#1B4B4C"/>
<path d="M54.14 107.837C53.527 108.687 52.262 110.163 51.042 110.033C49.891 109.91 49.831 108.659 49.977 107.776C50.138 106.806 50.615 105.19 51.373 103.845C52.202 102.162 53.486 100.789 55.199 100.961C58.59 101.296 54.929 106.741 54.14 107.837Z" fill="#1B4B4C"/>
<path d="M87.914 128.916C88.071 129.952 88.201 131.892 87.238 132.652C86.33 133.369 85.412 132.518 84.897 131.785C84.333 130.979 83.543 129.492 83.143 128C82.557 126.218 82.513 124.338 83.857 123.262C86.516 121.13 87.711 127.581 87.914 128.916Z" fill="#1B4B4C"/>
<path d="M46.603 96.26C43.565 104.131 32.102 131.729 25.871 151.535C21.69 164.826 20.098 175.981 19.183 178.913C19.183 178.913 50.792 168.761 57.909 168.743C68.87 168.716 86.451 191.607 82.139 194.475C75.359 198.984 43.041 214.324 17.232 219.14C3.20201 221.758 -23.23 203.926 -21.142 189.75C-18.211 169.854 17.742 117.41 31.422 102.538C38.525 94.817 50.305 86.667 46.603 96.26Z" fill="white"/>
<path d="M-23.067 193.954C-22.405 208.286 -4.47701 220.35 5.91899 220.988C23.851 222.076 77.645 206.41 77.645 206.41L56.735 166.125C56.735 166.125 20.13 178.55 19.201 178.9L19.202 178.884C19.526 177.816 28.546 143.92 32.576 132.688C32.792 132.068 33.04 131.434 33.275 130.766C34.435 127.655 36.027 123.547 37.785 119.108L37.803 119.077C38.777 116.62 39.807 114.053 40.819 111.517L40.82 111.501C45.241 100.519 49.55 90.067 49.55 90.067C43.388 91.078 37.304 94.317 27.314 104.803C17.341 115.272 -24.16 170.31 -23.067 193.954Z" fill="#6EBEB5"/>
<path d="M37.932 100.146C39.253 101.095 38.971 103.845 38.771 105.214C38.438 107.465 37.527 109.673 36.328 111.593C35.623 112.722 34.252 115.179 32.663 115.174C30.747 115.167 30.509 113.196 30.876 111.067C30.79 107.722 32.383 104.17 34.408 101.717C35.155 100.819 36.632 99.223 37.932 100.146Z" fill="#1B4B4C"/>
<path d="M8.00598 184.841L19.184 178.914L19.201 178.899L19.202 178.883C19.526 177.815 28.546 143.919 32.576 132.687C32.792 132.067 33.04 131.433 33.275 130.765C34.435 127.654 36.027 123.546 37.785 119.107L8.00598 184.841Z" fill="#1B4B4C"/>
<path d="M6.89099 181.08C9.69599 181.118 26.633 176.594 29.1 178.919C44.134 193.091 48.886 190.236 52.086 192.082C76.858 206.334 109.937 223.076 121.745 223.182C139.652 223.328 146.784 208.3 143.804 194.101C137.92 166.032 100.065 111.304 82.938 96.763C73.856 89.064 74.574 100.677 78.331 113.299C80.534 120.701 84.387 131.706 88.318 142.505C91.8 152.125 101.025 176.71 101.185 177.287L101.184 177.303C101.198 177.336 101.214 177.353 101.213 177.37C101.225 177.436 101.16 177.448 101.016 177.407C100.229 177.263 79.046 167.279 57.743 161.795C50.236 159.862 34.603 157.109 28.998 159.611C25.665 161.099 25.609 163.088 25.609 163.088C25.609 163.088 22.937 162.845 20.119 165.165C18.25 166.704 17.67 168.882 17.67 168.882C17.67 168.882 14.746 169.291 13.225 170.985C11.411 173.006 11.251 175.145 11.251 175.145C7.30601 176.199 6.89099 181.08 6.89099 181.08Z" fill="white"/>
<path d="M73.595 166.059C69.675 164.732 67.902 164.724 67.902 164.724L45.616 202.36C45.616 202.36 107.002 224.459 119.607 225.752C132.211 227.045 146.55 217.119 146.792 201.294C147.132 179.054 110.865 125.645 92.622 104.992C84.261 95.526 74.512 88.653 72.027 90.203C69.09 92.036 74.423 103.937 77.234 112.815C82.423 129.205 101.015 177.407 101.015 177.407C101.015 177.407 78.265 167.64 73.595 166.059Z" fill="#6EBEB5"/>
<path d="M82.819 116.092C82.245 117.158 81.048 118.548 79.691 117.875C78.346 117.223 78.247 115.073 78.198 113.831C78.151 112.513 78.431 109.818 79.322 107.816C79.927 106.169 80.96 104.96 82.604 105.293C86.256 106.047 83.866 114.123 82.819 116.092Z" fill="#1B4B4C"/>
<path d="M95.446 109.053C97.125 109.936 96.465 114.597 95.503 116.925C94.27 119.907 91.959 123.443 89.354 122.744C88.041 122.387 87.256 119.149 89.162 114.536C90.929 110.26 94.062 108.33 95.446 109.053Z" fill="#1B4B4C"/>
<path d="M87.914 128.916C88.071 129.952 88.201 131.892 87.238 132.652C86.33 133.369 85.412 132.518 84.897 131.785C84.333 130.979 83.543 129.492 83.143 128C82.557 126.218 82.513 124.338 83.857 123.262C86.516 121.13 87.711 127.581 87.914 128.916Z" fill="#1B4B4C"/>
<path d="M51.175 104.816C56.943 106.89 68.144 98.987 72.995 92.103C73.325 91.629 73.155 86.237 73.259 79.676C73.338 75.694 73.519 71.263 73.976 67.231L47.992 70.505C47.992 70.505 49.519 79.239 48.678 86.263C48.601 86.85 48.481 87.389 48.316 87.898C48.299 87.973 48.267 88.063 48.248 88.168C47.38 91.252 45.601 102.808 51.175 104.816Z" fill="white"/>
<path d="M48.242 88.165C48.192 88.332 48.142 88.515 48.108 88.732C63.664 88.073 69.58 81.233 73.41 74.672C73.527 72.17 73.694 69.635 73.977 67.233L47.991 70.502C47.991 70.502 49.526 79.242 48.675 86.264C48.608 86.848 48.475 87.381 48.308 87.899C48.292 87.965 48.275 88.065 48.242 88.165Z" fill="#1B4B4C"/>
<path d="M80.997 34.923C83.722 43.956 78.875 70.008 72.438 75.8C63.107 84.196 47.871 84.954 40.747 73.747C33.842 62.884 40.76 29.043 47.946 23.784C58.531 16.038 76.972 21.582 80.997 34.923Z" fill="white"/>
<path d="M58.827 49.523C58.853 49.459 58.949 49.631 58.934 49.703C58.561 51.449 58.427 53.512 59.91 54.383C59.956 54.41 59.935 54.497 59.877 54.479C57.988 53.854 58.193 51.117 58.827 49.523Z" fill="#1B4B4C"/>
<path d="M60.728 47.973C63.592 48.27 62.787 53.976 60.134 53.7C57.523 53.429 58.327 47.724 60.728 47.973Z" fill="#1B4B4C"/>
<path d="M48.059 47.902C48.055 47.832 47.909 47.966 47.901 48.039C47.708 49.814 47.188 51.815 45.507 52.176C45.455 52.187 45.447 52.277 45.507 52.277C47.497 52.278 48.161 49.614 48.059 47.902Z" fill="#1B4B4C"/>
<path d="M46.741 45.834C43.929 45.218 42.903 50.887 45.508 51.458C48.072 52.02 49.098 46.35 46.741 45.834Z" fill="#1B4B4C"/>
<path d="M63.347 45.681C62.597 45.376 61.957 44.969 61.247 44.591C60.446 44.164 59.764 43.906 59.317 43.071C59.078 42.623 59.304 41.911 59.717 41.638C60.68 41.001 61.791 41.28 62.776 41.755C63.845 42.27 64.537 42.941 65.04 44.014C65.528 45.053 64.336 46.083 63.347 45.681Z" fill="#1B4B4C"/>
<path d="M44.94 42.65C45.749 42.633 46.492 42.482 47.29 42.381C48.191 42.268 48.92 42.271 49.635 41.65C50.019 41.317 50.061 40.572 49.773 40.169C49.101 39.23 47.964 39.095 46.874 39.186C45.691 39.286 44.805 39.665 43.952 40.488C43.126 41.285 43.873 42.673 44.94 42.65Z" fill="#1B4B4C"/>
<path d="M57.834 65.306C57.485 65.791 57.165 66.432 56.537 66.598C55.934 66.757 55.168 66.608 54.57 66.489C54.511 66.477 54.465 66.546 54.51 66.593C55.085 67.188 56.12 67.441 56.909 67.154C57.681 66.875 57.953 66.118 58.018 65.356C58.026 65.249 57.885 65.235 57.834 65.306Z" fill="#1B4B4C"/>
<path d="M56.055 60.26C54.85 61.655 53.277 62.288 51.661 62.371C50.939 62.413 50.197 62.333 49.482 62.165C49.34 62.142 49.2 62.106 49.075 62.059C48.948 62.025 48.834 61.994 48.696 61.945C48.494 61.886 48.404 61.699 48.397 61.499L48.399 61.486C48.409 61.422 48.418 61.37 48.441 61.308C48.441 61.308 48.441 61.308 48.443 61.295L48.468 61.14C48.623 59.774 49.047 57.723 49.047 57.723C48.514 57.902 45.819 58.685 45.959 57.979C47.14 52.144 48.454 45.653 50.862 40.095C50.932 39.908 51.222 39.994 51.178 40.186C50.265 45.84 48.364 51.295 47.356 56.959C48.208 56.766 49.608 56.383 50.318 56.497C50.504 56.58 49.428 60.446 49.408 61.065C49.408 61.065 49.404 61.091 49.41 61.132C51.655 61.746 53.476 61.299 55.912 60.076C56.058 59.996 56.181 60.135 56.055 60.26Z" fill="#1B4B4C"/>
<path d="M50.42 62.255C50.42 62.255 51.518 63.926 53.112 64.597C53.699 64.846 54.341 64.968 55.027 64.825C56.438 64.538 56.545 63.264 56.351 62.158C56.195 61.248 55.823 60.451 55.823 60.451C55.823 60.451 53.686 62.237 50.42 62.255Z" fill="#1B4B4C"/>
<path d="M53.112 64.596C53.699 64.845 54.341 64.967 55.027 64.824C56.438 64.537 56.545 63.263 56.351 62.157C54.853 62.226 53.321 63.154 53.112 64.596Z" fill="#FC8E44"/>
<path d="M76.847 58.422C75.439 57.065 73.95 48.402 73.95 48.402C73.95 48.402 57.927 41.413 56.524 26.633C56.524 26.633 48.416 35.033 41.526 36.696C41.526 36.696 42.288 21.51 56.327 19.943C56.327 19.943 70.214 15.14 81.378 28.553C92.543 41.965 81.021 58.889 81.021 58.889L76.847 58.422Z" fill="#1B4B4C"/>
<path d="M57.038 23.865C56.287 26.207 56.666 28.913 57.246 31.267C57.835 33.656 58.852 35.972 60.097 38.09C61.368 40.254 62.869 42.358 64.785 43.998C66.974 45.872 69.655 47.099 72.281 48.229C72.364 48.265 72.303 48.41 72.219 48.376C69.439 47.278 66.649 46.138 64.243 44.327C62.145 42.749 60.47 40.63 59.025 38.456C57.55 36.236 56.424 33.836 55.975 31.195C55.536 28.612 56.026 26.26 56.756 23.787C56.808 23.607 57.095 23.686 57.038 23.865Z" fill="#1B4B4C"/>
<path d="M52.863 17.7C55.554 15.785 62.016 11.944 67.858 11.46C73.813 10.967 81.652 13.412 84.387 14.169C86.636 14.791 94.107 15.176 99.95 18.017C103.8 19.889 105.743 25.257 105.361 27.982C104.787 32.077 96.336 30.126 96.031 31.715C95.828 32.77 97.525 37.888 95.105 40.444C92.689 42.996 92.775 42.614 91.39 44.022C88.027 47.441 82.673 28.511 75.234 23.72C67.796 18.93 52.863 17.7 52.863 17.7Z" fill="#FC8E44"/>
<path opacity="0.1" d="M53.472 17.963C53.472 17.963 67.798 18.93 75.232 23.725C82.673 28.507 86.872 46.762 90.241 43.345C91.722 41.837 92.202 39.958 92.312 36.944C90.376 31.76 86.474 23.902 80.808 19.078C75.501 14.56 67.737 13.336 59.856 14.073C57.423 15.254 55.319 16.646 53.472 17.963Z" fill="black"/>
<path d="M91.098 52.441C86.781 46.79 82.376 37.596 75.602 31.189C68.828 24.782 52.597 23.601 50.481 24.172C45.345 25.557 44.723 28.281 43.804 27.988C42.883 27.695 46.85 20.703 48.13 19.522C49.411 18.341 52.671 16.637 54.942 16.22C57.214 15.803 71.437 14.278 77.742 19.163C84.048 24.048 94.69 39.205 94.267 43.743C94.165 44.832 92.942 45.775 92.811 47.316C92.639 49.339 92.699 51.626 92.403 53.077C92.164 54.247 91.362 52.787 91.098 52.441Z" fill="#FC8E44"/>
<path d="M73.701 28.075C74.746 27.084 75.696 26.046 76.562 24.892C77.416 23.754 78.247 22.514 78.808 21.203C78.849 21.107 78.999 21.148 78.966 21.252C78.506 22.689 77.946 24.033 77.06 25.265C76.209 26.449 75.096 27.515 73.866 28.301C73.728 28.389 73.587 28.183 73.701 28.075Z" fill="#1B4B4C"/>
<path d="M90.47 49.557C90.532 49.176 90.699 48.816 90.795 48.442C90.906 48.016 90.98 47.58 90.998 47.139C91.034 46.295 90.84 45.485 91.058 44.652C91.23 43.992 91.549 43.39 91.863 42.788C92.221 42.103 92.567 41.391 92.411 40.603C92.391 40.498 92.55 40.461 92.573 40.565C92.889 42.048 92.113 43.309 91.724 44.686C91.475 45.568 91.683 46.466 91.584 47.363C91.5 48.123 91.295 49.119 90.72 49.672C90.636 49.754 90.448 49.691 90.47 49.557Z" fill="#1B4B4C"/>
<path d="M87.683 44.63C88.03 43.976 88.424 43.376 88.708 42.685C88.981 42.023 89.195 41.331 89.376 40.639C89.555 39.955 89.677 39.259 89.843 38.572C90.038 37.76 90.331 36.962 90.486 36.143C90.506 36.038 90.664 36.088 90.644 36.192C90.483 37.042 90.469 37.922 90.336 38.778C90.221 39.516 90.032 40.25 89.822 40.966C89.619 41.656 89.365 42.324 89.034 42.963C88.72 43.569 88.293 44.257 87.751 44.686C87.713 44.72 87.658 44.677 87.683 44.63Z" fill="#1B4B4C"/>
<path d="M84.91 40.226C85.738 39.157 86.458 37.934 86.942 36.67C87.421 35.422 87.828 34.138 88.221 32.861C88.247 32.774 88.396 32.793 88.383 32.889C88.188 34.272 88.002 35.643 87.474 36.949C87.224 37.567 86.939 38.208 86.55 38.752C86.126 39.344 85.593 39.862 85.043 40.337C84.973 40.396 84.847 40.308 84.91 40.226Z" fill="#1B4B4C"/>
<path d="M82.022 36.058C82.505 35.615 82.763 35.059 83.044 34.48C83.352 33.845 83.647 33.2 83.92 32.549C84.182 31.923 84.461 31.305 84.722 30.679C84.985 30.049 85.242 29.395 85.223 28.702C85.22 28.61 85.371 28.594 85.387 28.686C85.498 29.375 85.388 30.042 85.224 30.712C85.044 31.446 84.821 32.161 84.518 32.854C84.22 33.534 83.89 34.199 83.508 34.836C83.175 35.391 82.766 35.975 82.158 36.244C82.042 36.295 81.919 36.152 82.022 36.058Z" fill="#1B4B4C"/>
<path d="M79.417 30.552C79.778 30.014 80.132 29.475 80.45 28.909C80.765 28.346 81.053 27.766 81.332 27.184C81.624 26.576 81.933 25.965 82.185 25.34C82.225 25.241 82.366 25.285 82.343 25.389C82.201 26.058 82.057 26.71 81.814 27.353C81.576 27.982 81.288 28.584 80.963 29.174C80.645 29.753 80.303 30.328 79.913 30.861C79.537 31.375 79.111 31.971 78.558 32.302C78.475 32.351 78.353 32.26 78.392 32.166C78.629 31.585 79.069 31.071 79.417 30.552Z" fill="#1B4B4C"/>
<path d="M69.377 26.081C69.733 25.38 70.08 24.696 70.502 24.031C70.93 23.357 71.407 22.708 71.906 22.086C72.886 20.866 73.939 19.72 75.163 18.741C75.231 18.687 75.352 18.766 75.29 18.845C73.392 21.306 71.391 23.689 69.517 26.169C69.453 26.254 69.328 26.176 69.377 26.081Z" fill="#1B4B4C"/>
<path d="M65.551 22.518C65.923 21.828 66.363 21.186 66.88 20.599C67.963 19.369 69.258 18.359 70.579 17.397C70.663 17.336 70.77 17.439 70.693 17.517C69.603 18.623 68.492 19.712 67.466 20.879C66.96 21.454 66.459 22.045 66.019 22.673C65.577 23.305 65.284 24.013 64.872 24.659C64.84 24.709 64.752 24.687 64.757 24.623C64.823 23.891 65.207 23.156 65.551 22.518Z" fill="#1B4B4C"/>
<path d="M61.085 21.451C61.418 20.777 61.826 20.153 62.288 19.561C63.165 18.438 64.222 17.496 65.419 16.723C65.498 16.671 65.583 16.793 65.515 16.856C64.477 17.818 63.516 18.875 62.658 19.999C62.227 20.564 61.826 21.151 61.418 21.732C61.012 22.31 60.708 22.997 60.246 23.53C60.208 23.573 60.145 23.523 60.158 23.475C60.342 22.778 60.766 22.094 61.085 21.451Z" fill="#1B4B4C"/>
<path d="M57.638 19.63C58.064 19.105 58.516 18.605 58.972 18.107C59.423 17.615 59.885 17.129 60.47 16.798C60.558 16.749 60.622 16.864 60.566 16.931C59.732 17.934 58.918 18.958 58.106 19.98C57.34 20.942 56.928 22.062 56.382 23.149C56.358 23.197 56.278 23.17 56.283 23.118C56.406 21.832 56.82 20.638 57.638 19.63Z" fill="#1B4B4C"/>
<path d="M53.808 19.609C54.547 18.488 55.555 17.657 56.644 16.897C56.72 16.844 56.814 16.972 56.741 17.03C55.746 17.806 54.952 18.846 54.242 19.878C53.517 20.932 52.987 22.085 52.508 23.265C52.485 23.321 52.386 23.315 52.395 23.245C52.547 21.942 53.09 20.697 53.808 19.609Z" fill="#1B4B4C"/>
<path d="M49.463 22.797C49.528 22.516 49.625 22.237 49.726 21.967C49.932 21.42 50.223 20.902 50.538 20.411C51.184 19.403 52.032 18.554 52.863 17.699C52.937 17.623 53.053 17.745 52.977 17.819C52.152 18.635 51.45 19.566 50.841 20.554C50.541 21.04 50.29 21.547 50.065 22.071C49.955 22.327 49.862 22.588 49.775 22.853C49.693 23.102 49.643 23.402 49.515 23.629C49.481 23.689 49.376 23.674 49.364 23.604C49.324 23.353 49.406 23.046 49.463 22.797Z" fill="#1B4B4C"/>
<path d="M46.579 23.673C46.779 23.231 46.996 22.806 47.245 22.389C47.493 21.974 47.759 21.582 48.057 21.201C48.361 20.813 48.682 20.437 48.968 20.036C49.036 19.939 49.172 20.047 49.095 20.14C48.779 20.521 48.521 20.951 48.276 21.38C48.044 21.786 47.807 22.189 47.573 22.594C47.34 22.999 47.106 23.403 46.876 23.809C46.644 24.219 46.457 24.678 46.182 25.059C46.137 25.122 46.048 25.078 46.062 25.004C46.152 24.546 46.388 24.096 46.579 23.673Z" fill="#1B4B4C"/>
<path d="M75.359 56.151C75.359 56.151 81.447 47.86 85.222 50.051C88.998 52.241 84.282 64.354 79.754 65.921C75.226 67.488 73.694 63.325 73.694 63.325L75.359 56.151Z" fill="white"/>
<path d="M83.784 53.489C83.856 53.484 83.868 53.585 83.805 53.61C80.628 54.812 78.903 57.693 77.671 60.692C78.635 59.549 79.924 58.94 81.459 60.091C81.539 60.152 81.458 60.278 81.369 60.257C80.086 59.951 79.151 60.153 78.256 61.165C77.622 61.882 77.179 62.797 76.718 63.631C76.564 63.909 76.059 63.747 76.174 63.425C76.182 63.402 76.192 63.377 76.201 63.353C76.215 59.337 79.466 53.792 83.784 53.489Z" fill="#1B4B4C"/>
</g>
</svg>
