<svg width="100%" height="100%" viewBox="0 0 124 124" fill="none" xmlns="http://www.w3.org/2000/svg">
<path d="M61.853 123.706C96.0135 123.706 123.706 96.0135 123.706 61.853C123.706 27.6925 96.0135 0 61.853 0C27.6925 0 0 27.6925 0 61.853C0 96.0135 27.6925 123.706 61.853 123.706Z" fill="#D4CAFF"/>
<mask id="mask0_1_351" style="mask-type:luminance" maskUnits="userSpaceOnUse" x="0" y="0" width="100%" height="100%">
<path d="M61.853 123.706C96.0135 123.706 123.706 96.0135 123.706 61.853C123.706 27.6925 96.0135 0 61.853 0C27.6925 0 0 27.6925 0 61.853C0 96.0135 27.6925 123.706 61.853 123.706Z" fill="white"/>
</mask>
<g mask="url(#mask0_1_351)">
<path d="M122.23 209.739H15.181C14.732 205.649 31.129 118.661 50.389 90.694C52.574 87.521 71.294 85.211 78.167 93.104C114.569 134.909 123.11 208.736 122.23 209.739Z" fill="#6EBEB5"/>
<path d="M47.853 97.914C44.816 105.785 33.352 133.383 27.121 153.189C22.94 166.48 21.347 177.635 20.433 180.567C20.433 180.567 52.042 170.415 59.159 170.397C70.12 170.37 87.701 193.261 83.389 196.129C76.609 200.638 44.291 215.978 18.482 220.794C4.45201 223.412 -21.98 205.58 -19.892 191.404C-16.961 171.508 18.992 119.064 32.672 104.192C39.775 96.471 51.555 88.321 47.853 97.914Z" fill="white"/>
<path d="M-21.817 195.609C-21.155 209.941 -3.22701 222.005 7.16899 222.643C25.101 223.731 78.895 208.065 78.895 208.065L57.985 167.779C57.985 167.779 21.38 180.204 20.451 180.554L20.452 180.538C20.776 179.47 29.796 145.574 33.826 134.342C34.042 133.722 34.29 133.088 34.525 132.42C35.685 129.309 37.277 125.201 39.035 120.762L39.053 120.731C40.027 118.274 41.057 115.707 42.069 113.171L42.07 113.155C46.491 102.173 50.8 91.721 50.8 91.721C44.638 92.732 38.554 95.971 28.564 106.457C18.591 116.927 -22.91 171.965 -21.817 195.609Z" fill="#6EBEB5"/>
<path d="M9.25598 186.495L20.434 180.568L20.451 180.553L20.452 180.537C20.776 179.469 29.796 145.573 33.826 134.341C34.042 133.721 34.29 133.087 34.525 132.419C35.685 129.308 37.277 125.2 39.035 120.761L9.25598 186.495Z" fill="#1B4B4C"/>
<path d="M8.14099 182.735C10.946 182.773 27.883 178.249 30.35 180.574C45.384 194.746 50.136 191.891 53.336 193.737C78.108 207.989 111.187 224.731 122.995 224.837C140.902 224.982 148.034 209.955 145.053 195.756C139.169 167.687 101.314 112.959 84.187 98.418C75.105 90.719 75.823 102.332 79.58 114.954C81.783 122.356 85.636 133.361 89.567 144.16C93.049 153.78 102.273 178.365 102.434 178.942L102.433 178.958C102.447 178.991 102.463 179.009 102.462 179.025C102.474 179.091 102.409 179.103 102.265 179.062C101.478 178.918 80.295 168.934 58.992 163.45C51.485 161.517 35.852 158.764 30.247 161.266C26.914 162.754 26.857 164.743 26.857 164.743C26.857 164.743 24.185 164.5 21.367 166.82C19.498 168.359 18.918 170.537 18.918 170.537C18.918 170.537 15.994 170.946 14.473 172.641C12.659 174.661 12.499 176.801 12.499 176.801C8.55499 177.854 8.14099 182.735 8.14099 182.735Z" fill="white"/>
<path d="M74.845 167.714C70.925 166.387 69.152 166.379 69.152 166.379L46.866 204.015C46.866 204.015 108.252 226.114 120.857 227.407C133.461 228.7 147.8 218.774 148.042 202.949C148.382 180.709 112.115 127.3 93.872 106.647C85.511 97.181 75.762 90.308 73.277 91.858C70.34 93.691 75.673 105.592 78.484 114.47C83.673 130.86 102.265 179.062 102.265 179.062C102.265 179.062 79.514 169.295 74.845 167.714Z" fill="#6EBEB5"/>
<path d="M52.424 106.47C58.192 108.544 69.393 100.641 74.244 93.757C74.574 93.283 74.404 87.892 74.508 81.33C74.587 77.348 74.768 72.917 75.225 68.885L49.241 72.159C49.241 72.159 50.768 80.892 49.927 87.917C49.85 88.503 49.73 89.043 49.565 89.552C49.548 89.627 49.516 89.717 49.497 89.822C48.63 92.907 46.85 104.462 52.424 106.47Z" fill="white"/>
<path d="M49.492 89.82C49.442 89.987 49.392 90.17 49.358 90.387C64.914 89.728 70.83 82.888 74.66 76.326C74.777 73.824 74.944 71.289 75.227 68.887L49.241 72.156C49.241 72.156 50.776 80.896 49.925 87.918C49.858 88.502 49.725 89.036 49.558 89.553C49.542 89.619 49.525 89.72 49.492 89.82Z" fill="#1B4B4C"/>
<path d="M82.246 36.578C84.971 45.611 80.124 71.663 73.687 77.455C64.356 85.851 49.12 86.609 41.996 75.401C35.091 64.538 42.009 30.697 49.195 25.438C59.78 17.693 78.221 23.236 82.246 36.578Z" fill="white"/>
<path d="M60.077 51.178C60.103 51.114 60.199 51.286 60.184 51.358C59.811 53.104 59.677 55.167 61.16 56.038C61.206 56.065 61.185 56.152 61.127 56.134C59.237 55.509 59.443 52.772 60.077 51.178Z" fill="#1B4B4C"/>
<path d="M61.977 49.628C64.841 49.925 64.036 55.631 61.383 55.355C58.772 55.084 59.577 49.378 61.977 49.628Z" fill="#1B4B4C"/>
<path d="M49.309 49.557C49.305 49.487 49.159 49.621 49.151 49.693C48.957 51.468 48.438 53.469 46.756 53.83C46.704 53.841 46.696 53.931 46.756 53.931C48.747 53.932 49.411 51.269 49.309 49.557Z" fill="#1B4B4C"/>
<path d="M47.991 47.488C45.179 46.872 44.153 52.541 46.758 53.112C49.322 53.675 50.348 48.005 47.991 47.488Z" fill="#1B4B4C"/>
<path d="M64.597 47.336C63.847 47.031 63.207 46.624 62.497 46.246C61.696 45.819 61.014 45.561 60.567 44.726C60.328 44.278 60.554 43.566 60.967 43.293C61.93 42.656 63.041 42.935 64.026 43.409C65.095 43.924 65.787 44.595 66.29 45.668C66.778 46.708 65.585 47.738 64.597 47.336Z" fill="#1B4B4C"/>
<path d="M46.189 44.305C46.998 44.288 47.742 44.137 48.54 44.036C49.441 43.923 50.17 43.926 50.885 43.305C51.269 42.972 51.311 42.227 51.023 41.824C50.351 40.885 49.214 40.75 48.124 40.841C46.941 40.941 46.055 41.32 45.202 42.143C44.376 42.939 45.122 44.328 46.189 44.305Z" fill="#1B4B4C"/>
<path d="M58.417 67.469C57.935 67.823 57.433 68.333 56.784 68.296C56.162 68.261 55.479 67.882 54.947 67.584C54.895 67.555 54.829 67.606 54.858 67.664C55.221 68.407 56.127 68.968 56.966 68.94C57.786 68.913 58.279 68.277 58.576 67.573C58.617 67.474 58.487 67.417 58.417 67.469Z" fill="#1B4B4C"/>
<path d="M57.305 61.915C56.099 63.31 54.527 63.943 52.911 64.026C52.189 64.068 51.447 63.988 50.732 63.82C50.59 63.797 50.45 63.761 50.325 63.714C50.198 63.68 50.084 63.649 49.946 63.6C49.744 63.541 49.654 63.354 49.647 63.154L49.649 63.141C49.659 63.077 49.668 63.025 49.691 62.963C49.691 62.963 49.691 62.963 49.693 62.95L49.719 62.796C49.874 61.43 50.298 59.379 50.298 59.379C49.765 59.558 47.07 60.341 47.21 59.635C48.391 53.8 49.705 47.309 52.113 41.751C52.183 41.564 52.473 41.65 52.429 41.842C51.516 47.496 49.615 52.951 48.607 58.615C49.459 58.422 50.859 58.039 51.569 58.153C51.755 58.236 50.679 62.102 50.659 62.721C50.659 62.721 50.655 62.747 50.661 62.788C52.906 63.403 54.727 62.955 57.163 61.732C57.308 61.651 57.431 61.79 57.305 61.915Z" fill="#1B4B4C"/>
<path d="M84.787 57.232C77.767 57.939 73.839 49.662 75.281 42.863C75.281 42.863 56.65 45.913 55.297 30.922C55.297 30.922 51.819 37.552 43.341 38.033L41.418 43.633C39.482 43.137 37.274 37.745 41.839 33.324C41.839 33.324 41.935 25.828 47.317 21.168C52.698 16.507 58.272 19.294 58.272 19.294C58.272 19.294 62.548 15.498 69.467 16.171C76.386 16.844 79.413 23.042 79.413 23.042C79.413 23.042 88.734 24.532 90.512 31.066C92.29 37.601 89.022 42.117 89.022 42.117C89.022 42.117 91.426 44.632 90.415 50.285C89.766 53.92 86.894 57.019 84.787 57.232Z" fill="#1B4B4C"/>
<path d="M55.67 29.576C55.583 30.805 55.572 32.036 55.74 33.245C55.847 34.458 56.137 35.64 56.527 36.772C57.35 39.02 58.908 40.96 61.022 42.03C63.081 43.263 65.58 43.391 67.971 43.552C69.182 43.478 70.408 43.49 71.623 43.348C72.837 43.188 74.049 42.999 75.282 42.862C74.095 43.19 72.89 43.464 71.685 43.768C70.469 43.998 69.221 44.063 67.982 44.218C65.51 44.192 62.895 44.063 60.614 42.793C58.349 41.573 56.625 39.412 55.899 36.983C55.179 34.556 55.144 31.986 55.67 29.576Z" fill="#1B4B4C"/>
<path d="M46.291 38.549C48.35 37.727 50.265 36.71 51.872 35.321C52.696 34.65 53.378 33.835 53.993 32.97C54.636 32.109 55.027 31.103 55.479 30.08C55.38 31.181 55.129 32.315 54.565 33.312C54.045 34.327 53.31 35.24 52.438 35.977C51.564 36.711 50.591 37.324 49.544 37.748C48.501 38.174 47.409 38.487 46.291 38.549Z" fill="#1B4B4C"/>
<path d="M76.608 57.805C76.608 57.805 82.696 49.514 86.471 51.705C90.247 53.895 85.531 66.009 81.003 67.575C76.475 69.142 74.942 64.978 74.942 64.978L76.608 57.805Z" fill="white"/>
<path d="M85.034 55.144C85.106 55.139 85.118 55.24 85.055 55.265C81.878 56.467 80.153 59.348 78.921 62.347C79.885 61.204 81.174 60.595 82.709 61.746C82.789 61.807 82.708 61.933 82.619 61.912C81.336 61.606 80.401 61.808 79.506 62.82C78.872 63.537 78.429 64.452 77.968 65.286C77.814 65.564 77.309 65.402 77.424 65.08C77.432 65.057 77.442 65.032 77.451 65.008C77.465 60.992 80.715 55.447 85.034 55.144Z" fill="#1B4B4C"/>
<path d="M47.088 94.332C47.099 94.279 47.185 94.288 47.179 94.343C46.674 99.506 45.868 111.494 54.646 111.119C58.182 110.968 61.462 109.057 64.209 107.166C67.031 105.224 69.559 102.94 71.857 100.48C74.407 97.75 75.27 96.459 77.123 94.519C77.233 94.404 77.421 94.535 77.333 94.668C75.419 97.571 75.255 98.237 72.757 101.121C70.353 103.896 67.635 106.46 64.5 108.529C61.562 110.468 58.074 112.367 54.334 112.36C50.776 112.355 48.252 110.216 47.304 107.131C46.06 103.08 46.275 98.402 47.088 94.332Z" fill="#1B4B4C"/>
</g>
</svg>
