<svg width="100%" height="100%"  viewBox="0 0 124 124"  fill="none" xmlns="http://www.w3.org/2000/svg">
<path d="M61.853 123.706C96.0135 123.706 123.706 96.0135 123.706 61.853C123.706 27.6926 96.0135 0 61.853 0C27.6925 0 0 27.6926 0 61.853C0 96.0135 27.6925 123.706 61.853 123.706Z" fill="#D4CAFF"/>
<mask id="mask0_1_159" style="mask-type:luminance" maskUnits="userSpaceOnUse" x="0" y="0" width="100%" height="100%">
<path d="M61.853 123.706C96.0135 123.706 123.706 96.0135 123.706 61.853C123.706 27.6926 96.0135 0 61.853 0C27.6925 0 0 27.6926 0 61.853C0 96.0135 27.6925 123.706 61.853 123.706Z" fill="white"/>
</mask>
<g mask="url(#mask0_1_159)">
<path d="M120.98 208.085H13.932C13.483 203.995 29.88 117.006 49.14 89.04C51.325 85.867 70.045 83.557 76.918 91.45C113.32 133.254 121.86 207.081 120.98 208.085Z" fill="#FC8E44"/>
<path d="M57.958 114.325L53.317 106.35L47.542 112.817L49.054 119.161L54.847 119.832L57.958 114.325Z" fill="#1B4B4C"/>
<path d="M54.847 119.832L58.428 184.817L48.47 199.952L39.882 182.35L49.054 119.161L54.847 119.832Z" fill="#1B4B4C"/>
<path d="M46.603 96.26C43.565 104.131 32.102 131.729 25.871 151.535C21.69 164.826 20.098 175.981 19.183 178.913C19.183 178.913 50.792 168.761 57.909 168.743C68.87 168.716 86.451 191.607 82.139 194.475C75.359 198.984 43.041 214.324 17.232 219.14C3.20199 221.758 -23.23 203.926 -21.141 189.75C-18.21 169.854 17.743 117.41 31.423 102.538C38.525 94.817 50.305 86.667 46.603 96.26Z" fill="white"/>
<path d="M-23.067 193.954C-22.405 208.286 -4.477 220.35 5.919 220.988C23.851 222.076 77.645 206.41 77.645 206.41L56.736 166.125C56.736 166.125 20.131 178.55 19.202 178.9L19.203 178.884C19.527 177.816 28.547 143.92 32.577 132.688C32.792 132.068 33.041 131.434 33.276 130.766C34.436 127.655 36.028 123.547 37.786 119.108L37.804 119.077C38.778 116.62 39.808 114.053 40.82 111.517L40.821 111.501C45.242 100.519 49.551 90.067 49.551 90.067C43.389 91.078 37.305 94.317 27.314 104.803C17.341 115.272 -24.16 170.31 -23.067 193.954Z" fill="#FC8E44"/>
<path d="M8.006 184.841L19.184 178.914L19.201 178.899L19.202 178.883C19.526 177.815 28.546 143.919 32.576 132.687C32.791 132.067 33.04 131.433 33.275 130.765C34.435 127.654 36.027 123.546 37.785 119.107L8.006 184.841Z" fill="#1B4B4C"/>
<path d="M6.891 181.08C9.696 181.118 26.633 176.594 29.1 178.919C44.134 193.091 48.886 190.236 52.086 192.082C76.857 206.334 109.937 223.076 121.745 223.182C139.652 223.328 146.785 208.3 143.804 194.101C137.92 166.032 100.065 111.304 82.938 96.763C73.856 89.064 74.574 100.677 78.331 113.299C80.534 120.701 84.387 131.706 88.318 142.505C91.8 152.125 101.024 176.71 101.185 177.287L101.184 177.303C101.198 177.336 101.213 177.353 101.213 177.37C101.225 177.436 101.16 177.448 101.016 177.407C100.229 177.263 79.046 167.279 57.743 161.795C50.236 159.862 34.603 157.109 28.998 159.611C25.665 161.099 25.608 163.088 25.608 163.088C25.608 163.088 22.936 162.845 20.118 165.165C18.249 166.704 17.668 168.882 17.668 168.882C17.668 168.882 14.744 169.291 13.223 170.985C11.409 173.006 11.249 175.145 11.249 175.145C7.306 176.199 6.891 181.08 6.891 181.08Z" fill="white"/>
<path d="M73.595 166.059C69.675 164.732 67.902 164.724 67.902 164.724L45.616 202.36C45.616 202.36 107.002 224.459 119.607 225.752C132.211 227.045 146.55 217.119 146.792 201.294C147.132 179.054 110.865 125.645 92.622 104.992C84.261 95.526 74.512 88.653 72.027 90.203C69.09 92.036 74.423 103.937 77.234 112.815C82.423 129.205 101.015 177.407 101.015 177.407C101.015 177.407 78.265 167.64 73.595 166.059Z" fill="#FC8E44"/>
<path d="M81.064 60.229C81.064 60.229 80.761 66.929 81.36 69.252C81.959 71.575 87.183 74.015 87.183 74.015C87.183 74.015 81.225 76.119 79.532 75.713C77.839 75.307 75.114 70.969 75.114 70.969C75.114 70.969 77.623 77.913 80.04 78.279C81.542 78.506 76.355 78.557 76.355 78.557C76.355 78.557 73.586 78.449 71.824 76.452C70.063 74.456 81.064 60.229 81.064 60.229Z" fill="#1B4B4C"/>
<path d="M51.175 104.816C56.943 106.89 68.144 98.987 72.995 92.103C73.325 91.629 73.155 86.237 73.259 79.676C73.338 75.694 73.519 71.263 73.976 67.231L47.992 70.505C47.992 70.505 49.519 79.239 48.678 86.263C48.601 86.85 48.481 87.389 48.316 87.898C48.299 87.973 48.267 88.063 48.248 88.168C47.38 91.252 45.601 102.808 51.175 104.816Z" fill="white"/>
<path d="M48.242 88.165C48.192 88.332 48.142 88.515 48.109 88.732C63.665 88.073 69.581 81.233 73.411 74.672C73.528 72.17 73.695 69.635 73.978 67.233L47.992 70.502C47.992 70.502 49.527 79.242 48.676 86.264C48.609 86.848 48.476 87.381 48.309 87.899C48.292 87.965 48.275 88.065 48.242 88.165Z" fill="#1B4B4C"/>
<path d="M80.997 34.923C83.722 43.956 78.875 70.008 72.438 75.8C63.107 84.196 47.871 84.954 40.748 73.747C33.843 62.884 40.761 29.043 47.947 23.784C58.531 16.038 76.972 21.582 80.997 34.923Z" fill="white"/>
<path d="M58.827 49.523C58.853 49.459 58.95 49.631 58.934 49.703C58.561 51.449 58.427 53.512 59.91 54.383C59.956 54.41 59.935 54.497 59.877 54.479C57.988 53.854 58.193 51.117 58.827 49.523Z" fill="#1B4B4C"/>
<path d="M60.728 47.973C63.592 48.27 62.787 53.976 60.134 53.7C57.523 53.429 58.327 47.724 60.728 47.973Z" fill="#1B4B4C"/>
<path d="M48.059 47.902C48.055 47.832 47.909 47.966 47.901 48.039C47.708 49.814 47.188 51.815 45.507 52.176C45.455 52.187 45.447 52.277 45.507 52.277C47.497 52.278 48.161 49.614 48.059 47.902Z" fill="#1B4B4C"/>
<path d="M46.741 45.834C43.929 45.218 42.903 50.887 45.508 51.458C48.072 52.02 49.098 46.35 46.741 45.834Z" fill="#1B4B4C"/>
<path d="M63.347 45.681C62.597 45.376 61.957 44.969 61.247 44.591C60.446 44.164 59.764 43.906 59.318 43.071C59.079 42.623 59.305 41.911 59.718 41.638C60.681 41.001 61.792 41.28 62.777 41.755C63.846 42.27 64.538 42.941 65.041 44.014C65.528 45.053 64.336 46.083 63.347 45.681Z" fill="#1B4B4C"/>
<path d="M44.94 42.65C45.749 42.633 46.492 42.482 47.29 42.381C48.191 42.268 48.92 42.271 49.635 41.65C50.019 41.317 50.061 40.572 49.773 40.169C49.101 39.23 47.964 39.095 46.874 39.186C45.691 39.286 44.805 39.665 43.952 40.488C43.126 41.285 43.873 42.673 44.94 42.65Z" fill="#1B4B4C"/>
<path d="M57.834 65.306C57.485 65.791 57.165 66.432 56.537 66.598C55.934 66.757 55.168 66.608 54.57 66.489C54.511 66.477 54.465 66.546 54.51 66.593C55.085 67.188 56.12 67.441 56.909 67.154C57.681 66.875 57.953 66.118 58.018 65.356C58.026 65.249 57.885 65.235 57.834 65.306Z" fill="#1B4B4C"/>
<path d="M56.055 60.26C54.85 61.655 53.277 62.288 51.661 62.371C50.939 62.413 50.197 62.333 49.482 62.165C49.34 62.142 49.2 62.106 49.075 62.059C48.948 62.025 48.834 61.994 48.696 61.945C48.494 61.886 48.404 61.699 48.397 61.499L48.399 61.486C48.409 61.422 48.418 61.37 48.441 61.308C48.441 61.308 48.441 61.308 48.443 61.295L48.468 61.14C48.623 59.774 49.047 57.723 49.047 57.723C48.514 57.902 45.818 58.685 45.959 57.979C47.14 52.144 48.454 45.653 50.862 40.095C50.932 39.908 51.222 39.994 51.178 40.186C50.265 45.84 48.363 51.295 47.356 56.959C48.208 56.766 49.608 56.383 50.318 56.497C50.504 56.58 49.428 60.446 49.408 61.065C49.408 61.065 49.404 61.091 49.41 61.132C51.655 61.746 53.476 61.299 55.912 60.076C56.058 59.996 56.181 60.135 56.055 60.26Z" fill="#1B4B4C"/>
<path d="M50.42 62.255C50.42 62.255 51.518 63.926 53.112 64.597C53.7 64.846 54.341 64.968 55.027 64.825C56.438 64.538 56.545 63.264 56.351 62.158C56.195 61.248 55.823 60.451 55.823 60.451C55.823 60.451 53.686 62.237 50.42 62.255Z" fill="#1B4B4C"/>
<path d="M53.112 64.596C53.7 64.845 54.341 64.967 55.027 64.824C56.438 64.537 56.545 63.263 56.351 62.157C54.853 62.226 53.321 63.154 53.112 64.596Z" fill="#FC8E44"/>
<path d="M78.307 60.856C73.49 58.669 73.462 41.416 73.462 41.416L71.11 50.542C71.11 50.542 67.705 46.838 66.51 42.408C65.657 39.245 66.683 35.149 67.468 33.182C67.468 33.182 60.853 36.963 54.171 37.7C51.713 37.971 36.371 35.973 36.532 34.891C37.011 31.665 43.328 21.339 48.156 19.011C53.713 16.331 66.243 13.566 76.054 19.11C83.903 23.544 82.135 29.86 83.283 34.627C83.283 34.627 88.608 40.4 88.531 42.932C88.366 48.398 80.077 61.66 78.307 60.856Z" fill="#1B4B4C"/>
<path d="M75.359 56.151C75.359 56.151 81.447 47.86 85.223 50.051C88.998 52.241 84.283 64.354 79.755 65.921C75.227 67.488 73.695 63.325 73.695 63.325L75.359 56.151Z" fill="white"/>
<path d="M83.784 53.489C83.856 53.484 83.868 53.585 83.805 53.61C80.628 54.812 78.902 57.693 77.672 60.692C78.636 59.549 79.925 58.94 81.46 60.091C81.54 60.152 81.459 60.278 81.37 60.257C80.087 59.951 79.152 60.153 78.256 61.165C77.622 61.882 77.179 62.797 76.718 63.631C76.564 63.909 76.059 63.747 76.174 63.425C76.182 63.402 76.192 63.377 76.201 63.353C76.215 59.337 79.466 53.792 83.784 53.489Z" fill="#1B4B4C"/>
<path d="M48.129 87.743L54.153 103.214L73.503 83.925L78.861 90.237C78.861 90.237 59.807 121.006 59.703 119.606L53.495 106.26L44.232 115.401L45.223 92.216L48.129 87.743Z" fill="#FC8E44"/>
<path d="M44.073 103.913C44.365 100.091 44.552 96.233 45.02 92.428C45.037 92.293 45.249 92.235 45.28 92.395C46.008 96.097 44.813 110.709 44.793 114.215C44.806 114.202 44.821 114.188 44.834 114.175C45.22 113.779 53.415 106.136 53.494 106.26C54.848 108.383 59.405 118.102 59.714 118.986C62.728 114.098 74.268 96.336 77.822 91.722C77.924 91.59 78.13 91.702 78.05 91.857C75.379 97.024 60.104 120.945 59.874 120.875C59.715 120.995 54.052 109.023 53.384 106.766C51.993 108.436 43.712 117.071 43.69 116.502C43.544 112.662 43.781 107.74 44.073 103.913Z" fill="#1B4B4C"/>
</g>
</svg>
