<svg width="100%" height="100%" viewBox="0 0 124 124" fill="none" xmlns="http://www.w3.org/2000/svg">
<path d="M61.853 123.706C96.0135 123.706 123.706 96.0135 123.706 61.853C123.706 27.6925 96.0135 0 61.853 0C27.6925 0 0 27.6925 0 61.853C0 96.0135 27.6925 123.706 61.853 123.706Z" fill="#D4CAFF"/>
<mask id="mask0_1_17" style="mask-type:luminance" maskUnits="userSpaceOnUse" x="0" y="0" width="100%" height="100%">
<path d="M61.853 123.706C96.0135 123.706 123.706 96.0135 123.706 61.853C123.706 27.6925 96.0135 0 61.853 0C27.6925 0 0 27.6925 0 61.853C0 96.0135 27.6925 123.706 61.853 123.706Z" fill="white"/>
</mask>
<g mask="url(#mask0_1_17)">
<path d="M120.98 209.739H13.932C13.483 205.649 29.88 118.661 49.14 90.694C51.325 87.521 70.045 85.211 76.918 93.104C113.319 134.909 121.86 208.736 120.98 209.739Z" fill="#FC8E44"/>
<path d="M44.927 134.679H43.959V129.192H44.927V134.679ZM47.186 132.42V131.452H41.699V132.42H47.186ZM59.594 92.101H58.626V97.588H59.594V92.101ZM61.853 95.329V94.361H56.366V95.329H61.853ZM71.225 123.706H70.257V129.193H71.225V123.706ZM73.485 126.933V125.965H67.998V126.933H73.485ZM88.961 131.452H87.993V136.939H88.961V131.452ZM91.22 134.679V133.711H85.733V134.679H91.22ZM104.258 146.001H103.29V151.488H104.258V146.001ZM106.517 149.229V148.261H101.03V149.229H106.517ZM56.366 110.944H55.398V116.431H56.366V110.944ZM58.625 114.171V113.203H53.138V114.171H58.625ZM62.337 141.58H61.369V147.067H62.337V141.58ZM64.596 144.807V143.839H59.109V144.807H64.596ZM73.969 103.67H73.001V109.157H73.969V103.67ZM76.228 106.898V105.93H70.741V106.898H76.228ZM81.645 150.488H80.677V155.975H81.645V150.488ZM83.904 153.716V152.748H78.417V153.716H83.904ZM91.459 113.686C91.269 113.356 91.079 113.036 90.889 112.716C90.839 112.626 90.789 112.546 90.739 112.466V115.946H91.709V114.126C91.629 113.976 91.539 113.826 91.459 113.686ZM90.889 112.716H88.479V113.686H91.459C91.269 113.356 91.079 113.036 90.889 112.716ZM81.645 174.848H80.677V180.335H81.645V174.848ZM83.904 178.076V177.108H78.417V178.076H83.904ZM111.879 174.364H110.911V179.851H111.879V174.364ZM114.138 177.592V176.624H108.651V177.592H114.138ZM96.709 206.996V209.736H97.679V206.996H96.709ZM94.449 209.256V209.736H99.939V209.256H94.449ZM26.077 164.359H25.109V169.846H26.077V164.359ZM28.336 167.586V166.618H22.849V167.586H28.336ZM43.813 172.105H42.845V177.592H43.813V172.105ZM46.072 175.333V174.365H40.585V175.333H46.072ZM62.337 183.911H61.369V189.398H62.337V183.911ZM64.596 187.138V186.17H59.109V187.138H64.596ZM97.191 162.496H96.223V167.983H97.191V162.496ZM99.451 165.724V164.756H93.964V165.724H99.451ZM112.363 197.888H111.395V203.375H112.363V197.888ZM114.622 201.116V200.148H109.135V201.116H114.622ZM97.191 186.654H96.223V192.141H97.191V186.654ZM99.451 189.882V188.914H93.964V189.882H99.451ZM78.902 196.628H77.934V202.115H78.902V196.628ZM81.161 199.856V198.888H75.674V199.856H81.161ZM67.999 207.476V209.736H68.969V207.476H67.999ZM35.049 207.966V209.736H36.009V207.966H35.049ZM62.57 162.981H61.602V168.468H62.57V162.981ZM64.829 166.208V165.24H59.342V166.208H64.829ZM18.319 184.496C18.249 184.816 18.189 185.136 18.119 185.456H19.449V184.496H18.319ZM28.839 141.576C28.669 142.166 28.509 142.746 28.339 143.336V147.066H29.309V141.576H28.839ZM28.199 143.836C28.109 144.156 28.019 144.486 27.929 144.806H31.569V143.836H28.199ZM36.497 191.141H35.529V196.628H36.497V191.141ZM38.756 194.369V193.401H33.269V194.369H38.756ZM53.623 200.148H52.655V205.635H53.623V200.148ZM55.882 203.375V202.407H50.395V203.375H55.882ZM19.448 200.148H18.48V205.635H19.448V200.148ZM21.708 203.375V202.407H16.221V203.375H21.708ZM46.556 151.113H45.588V156.6H46.556V151.113ZM48.815 154.34V153.372H43.328V154.34H48.815Z" fill="white"/>
<path d="M46.603 97.914C43.565 105.785 32.102 133.383 25.871 153.189C21.69 166.48 20.098 177.635 19.183 180.567C19.183 180.567 50.792 170.415 57.909 170.397C68.87 170.37 86.451 193.261 82.139 196.129C75.359 200.638 43.041 215.978 17.232 220.794C3.20199 223.412 -23.23 205.58 -21.141 191.404C-18.21 171.508 17.743 119.064 31.423 104.192C38.525 96.471 50.305 88.321 46.603 97.914Z" fill="white"/>
<path d="M-23.067 195.609C-22.405 209.941 -4.477 222.005 5.919 222.643C23.851 223.731 77.645 208.065 77.645 208.065L56.736 167.779C56.736 167.779 20.131 180.204 19.202 180.554L19.203 180.538C19.527 179.47 28.547 145.574 32.577 134.342C32.792 133.722 33.041 133.088 33.276 132.42C34.436 129.309 36.028 125.201 37.786 120.762L37.804 120.731C38.778 118.274 39.808 115.707 40.82 113.171L40.821 113.155C45.242 102.173 49.551 91.721 49.551 91.721C43.389 92.732 37.305 95.971 27.314 106.457C17.341 116.927 -24.16 171.965 -23.067 195.609Z" fill="#FC8E44"/>
<path d="M40.326 99.236H39.358V104.723H40.326V99.236Z" fill="white"/>
<path d="M42.5863 102.463V101.495H37.0993V102.463H42.5863Z" fill="white"/>
<path d="M30.96 115.946H29.992V121.433H30.96V115.946Z" fill="white"/>
<path d="M33.2199 119.174V118.206H27.7329V119.174H33.2199Z" fill="white"/>
<path d="M8.006 186.495L19.184 180.568L19.201 180.553L19.202 180.537C19.526 179.469 28.546 145.573 32.576 134.341C32.791 133.721 33.04 133.087 33.275 132.419C34.435 129.308 36.027 125.2 37.785 120.761L8.006 186.495Z" fill="#1B4B4C"/>
<path d="M6.89099 182.735C9.69599 182.773 26.633 178.249 29.1 180.574C44.134 194.746 48.886 191.891 52.086 193.737C76.857 207.989 109.937 224.731 121.745 224.837C139.652 224.982 146.785 209.955 143.804 195.756C137.92 167.687 100.065 112.959 82.938 98.418C73.856 90.719 74.574 102.332 78.331 114.954C80.534 122.356 84.387 133.361 88.318 144.16C91.8 153.78 101.024 178.365 101.185 178.942L101.184 178.958C101.198 178.991 101.213 179.009 101.213 179.025C101.225 179.091 101.16 179.103 101.016 179.062C100.229 178.918 79.046 168.934 57.743 163.45C50.236 161.517 34.603 158.764 28.998 161.266C25.665 162.754 25.608 164.743 25.608 164.743C25.608 164.743 22.936 164.5 20.118 166.82C18.249 168.359 17.668 170.537 17.668 170.537C17.668 170.537 14.744 170.946 13.223 172.641C11.409 174.661 11.249 176.801 11.249 176.801C7.30599 177.854 6.89099 182.735 6.89099 182.735Z" fill="white"/>
<path d="M73.595 167.714C69.675 166.387 67.902 166.379 67.902 166.379L45.616 204.015C45.616 204.015 107.002 226.114 119.607 227.407C132.211 228.7 146.55 218.774 146.792 202.949C147.132 180.709 110.865 127.3 92.622 106.647C84.261 97.181 74.512 90.308 72.027 91.858C69.09 93.691 74.423 105.592 77.234 114.47C82.423 130.86 101.015 179.062 101.015 179.062C101.015 179.062 78.265 169.295 73.595 167.714Z" fill="#FC8E44"/>
<path d="M104.258 146.001H103.29V151.488H104.258V146.001ZM106.517 149.229V148.261H101.03V149.229H106.517ZM73.499 103.666C73.649 104.126 73.809 104.586 73.969 105.046V103.666H73.499ZM74.279 105.926C74.389 106.246 74.509 106.576 74.619 106.896H76.229V105.926H74.279ZM91.704 110.459H90.736V115.946H91.704V110.459ZM93.964 113.687V112.719H88.477V113.687H93.964ZM81.645 174.848H80.677V180.335H81.645V174.848ZM83.904 178.076V177.108H78.417V178.076H83.904ZM111.879 174.364H110.911V179.851H111.879V174.364ZM114.138 177.592V176.624H108.651V177.592H114.138ZM97.675 206.996H96.707V212.483H97.675V206.996ZM99.935 210.223V209.255H94.448V210.223H99.935ZM62.337 183.911H61.369V189.398H62.337V183.911ZM64.596 187.138V186.17H59.109V187.138H64.596ZM96.219 162.496V166.536C96.409 167.036 96.599 167.516 96.779 167.986H97.189V162.496H96.219ZM95.549 164.756C95.669 165.086 95.799 165.416 95.919 165.726H99.449V164.756H95.549ZM112.363 197.888H111.395V203.375H112.363V197.888ZM114.622 201.116V200.148H109.135V201.116H114.622ZM97.191 186.654H96.223V192.141H97.191V186.654ZM99.451 189.882V188.914H93.964V189.882H99.451ZM78.902 196.628H77.934V202.115H78.902V196.628ZM81.161 199.856V198.888H75.674V199.856H81.161ZM68.966 207.48H67.998V212.967H68.966V207.48ZM71.225 210.708V209.74H65.738V210.708H71.225ZM53.623 200.148H52.655V205.635H53.623V200.148ZM55.882 203.375V202.407H50.395V203.375H55.882ZM125.845 163.036H124.877V168.523H125.845V163.036ZM128.105 166.264V165.296H122.618V166.264H128.105ZM108.229 126.446H108.169V131.936H109.139V127.706C108.829 127.286 108.529 126.856 108.229 126.446ZM109.849 128.706H105.909V129.676H110.539C110.309 129.346 110.079 129.026 109.849 128.706ZM119.879 143.386V144.326H120.489C120.289 144.006 120.079 143.696 119.879 143.386ZM128.589 205.948H127.621V211.435H128.589V205.948ZM130.848 209.176V208.208H125.361V209.176H130.848ZM139.779 218.906V219.796C140.069 219.506 140.349 219.216 140.619 218.906H139.779ZM137.519 221.166V221.846C137.799 221.626 138.069 221.396 138.339 221.166H137.519ZM143.488 196.824H142.52V202.311H143.488V196.824ZM145.747 200.052V199.084H140.26V200.052H145.747ZM127.474 184.956H126.506V190.443H127.474V184.956ZM129.734 188.184V187.216H124.247V188.184H129.734ZM113.649 221.166V226.246C113.979 226.326 114.309 226.406 114.619 226.476V221.166H113.649ZM116.881 224.395V223.427H111.394V224.395H116.881Z" fill="white"/>
<path d="M51.999 106.748C57.868 108.516 68.638 100.035 73.12 92.905C73.424 92.415 72.971 87.039 72.73 80.482C72.599 76.502 72.547 72.067 72.792 68.017L47.016 72.653C47.016 72.653 49 81.294 48.53 88.353C48.484 88.943 48.393 89.488 48.255 90.005C48.242 90.081 48.214 90.172 48.202 90.278C47.496 93.402 46.327 105.035 51.999 106.748Z" fill="white"/>
<path d="M48.194 90.274C48.153 90.443 48.113 90.629 48.091 90.847C63.59 89.371 69.139 82.229 72.619 75.475C72.604 72.97 72.637 70.43 72.794 68.017L47.016 72.648C47.016 72.648 49.008 81.295 48.528 88.352C48.492 88.939 48.387 89.479 48.248 90.004C48.234 90.071 48.222 90.172 48.194 90.274Z" fill="#1B4B4C"/>
<path d="M78.103 35.383C81.3 44.26 77.83 70.531 71.707 76.654C62.83 85.529 47.656 87.087 39.952 76.27C32.485 65.785 37.614 31.627 44.513 25.998C54.675 17.706 73.382 22.272 78.103 35.383Z" fill="white"/>
<path d="M56.732 51.129C56.754 51.064 56.86 51.231 56.848 51.303C56.567 53.066 56.542 55.134 58.069 55.925C58.116 55.949 58.1 56.038 58.042 56.022C56.122 55.498 56.183 52.754 56.732 51.129Z" fill="#1B4B4C"/>
<path d="M58.548 49.481C61.423 49.626 60.92 55.367 58.256 55.232C55.635 55.098 56.138 49.358 58.548 49.481Z" fill="#1B4B4C"/>
<path d="M45.894 50.077C45.887 50.007 45.748 50.149 45.744 50.222C45.644 52.005 45.23 54.03 43.57 54.48C43.518 54.494 43.515 54.584 43.576 54.581C45.563 54.476 46.086 51.781 45.894 50.077Z" fill="#1B4B4C"/>
<path d="M44.469 48.08C41.629 47.612 40.902 53.328 43.533 53.761C46.123 54.189 46.85 48.472 44.469 48.08Z" fill="#1B4B4C"/>
<path d="M61.044 47.055C60.279 46.79 59.619 46.418 58.889 46.077C58.067 45.693 57.372 45.471 56.882 44.661C56.619 44.226 56.808 43.504 57.206 43.209C58.134 42.522 59.258 42.743 60.267 43.164C61.362 43.622 62.088 44.255 62.647 45.3C63.189 46.313 62.052 47.404 61.044 47.055Z" fill="#1B4B4C"/>
<path d="M42.502 44.996C43.309 44.936 44.043 44.746 44.835 44.604C45.729 44.444 46.457 44.409 47.138 43.75C47.504 43.397 47.507 42.651 47.198 42.263C46.478 41.361 45.335 41.285 44.251 41.434C43.075 41.596 42.21 42.021 41.402 42.888C40.62 43.728 41.438 45.075 42.502 44.996Z" fill="#1B4B4C"/>
<path d="M55.931 67.485C55.469 67.864 54.993 68.4 54.344 68.397C53.721 68.395 53.019 68.052 52.472 67.782C52.418 67.756 52.356 67.81 52.387 67.867C52.789 68.59 53.723 69.102 54.559 69.03C55.377 68.96 55.835 68.299 56.095 67.58C56.132 67.479 55.999 67.429 55.931 67.485Z" fill="#1B4B4C"/>
<path d="M54.529 61.997C53.399 63.453 51.861 64.168 50.252 64.336C49.533 64.416 48.788 64.375 48.065 64.245C47.922 64.229 47.78 64.201 47.654 64.161C47.525 64.134 47.41 64.109 47.27 64.067C47.065 64.018 46.966 63.837 46.948 63.638L46.949 63.625C46.956 63.56 46.961 63.508 46.982 63.445C46.982 63.445 46.982 63.445 46.983 63.432L47 63.276C47.083 61.904 47.398 59.833 47.398 59.833C46.876 60.04 44.225 60.964 44.328 60.251C45.201 54.361 46.171 47.811 48.283 42.134C48.343 41.943 48.637 42.014 48.604 42.208C47.99 47.902 46.378 53.45 45.669 59.159C46.51 58.921 47.888 58.465 48.603 58.542C48.793 58.615 47.922 62.532 47.935 63.152C47.935 63.152 47.932 63.178 47.941 63.219C50.215 63.715 52.01 63.172 54.378 61.823C54.518 61.733 54.648 61.865 54.529 61.997Z" fill="#1B4B4C"/>
<path d="M49.019 63.955C49.019 63.955 50.117 65.626 51.711 66.297C52.299 66.546 52.94 66.667 53.626 66.525C55.037 66.238 55.144 64.964 54.95 63.858C54.794 62.948 54.422 62.152 54.422 62.152C54.422 62.152 52.285 63.937 49.019 63.955Z" fill="#1B4B4C"/>
<path d="M51.711 66.297C52.299 66.546 52.94 66.667 53.626 66.525C55.037 66.238 55.144 64.964 54.95 63.858C53.452 63.927 51.92 64.855 51.711 66.297Z" fill="#FC8E44"/>
<path d="M75.887 56.769C71.213 56.236 72.287 44.801 72.287 44.801C72.287 44.801 65.203 43.128 62.237 33.125C62.237 33.125 52.723 38.404 45.079 36.584C33.1 33.73 34.28 18.031 38.979 15.074C45.639 10.883 56.712 18.113 56.712 18.113C56.712 18.113 74.27 14.232 78.785 26.21C78.785 26.21 86.48 26.965 86.55 35.515C86.62 44.064 79.37 57.166 75.887 56.769Z" fill="#1B4B4C"/>
<path d="M73.893 46.241C70.494 45.377 67.307 43.611 65.123 40.813C62.868 37.925 61.708 33.614 62.943 30.078C63.01 29.886 62.69 29.794 62.636 29.993C61.561 33.942 61.573 38.062 63.936 41.573C66.099 44.789 69.924 46.919 73.847 46.585C74.034 46.569 74.097 46.293 73.893 46.241Z" fill="#1B4B4C"/>
<path d="M87.437 30.556C85.222 27.408 81.608 26.739 78.007 26.669C77.801 26.665 77.803 27 78.007 26.988C81.566 26.775 85.002 29.33 86.688 32.326C88.341 35.263 87.738 38.816 86.838 41.91C85.11 47.85 81.277 53.084 75.995 56.335C75.907 56.389 75.986 56.523 76.075 56.472C82.051 53.113 86.592 47.384 88.221 40.694C89.017 37.431 89.481 33.46 87.437 30.556Z" fill="#1B4B4C"/>
<path d="M57.155 18.708C55.654 16.14 53.574 14.231 50.788 13.257C47.58 12.136 43.805 12.373 40.695 13.734C38.058 14.889 36.483 17.44 36.14 20.303C35.748 23.568 37.111 26.734 38.823 29.402C38.872 29.479 38.988 29.411 38.944 29.329C37.581 26.819 36.576 24.006 36.912 21.086C37.245 18.193 38.912 15.842 41.588 14.822C46.668 12.885 53.91 13.642 56.887 18.868C56.987 19.046 57.258 18.884 57.155 18.708Z" fill="#1B4B4C"/>
<path d="M73.589 56.878C73.589 56.878 79.233 48.278 83.118 50.267C87.003 52.256 82.932 64.6 78.492 66.403C74.053 68.206 72.303 64.129 72.303 64.129L73.589 56.878Z" fill="white"/>
<path d="M81.863 53.777C81.935 53.769 81.952 53.869 81.89 53.896C78.78 55.263 77.209 58.231 76.137 61.291C77.039 60.099 78.295 59.423 79.888 60.491C79.971 60.547 79.897 60.678 79.807 60.662C78.51 60.424 77.586 60.674 76.745 61.733C76.15 62.482 75.755 63.419 75.339 64.276C75.2 64.562 74.687 64.426 74.785 64.099C74.792 64.075 74.801 64.05 74.809 64.026C74.612 60.015 77.566 54.307 81.863 53.777Z" fill="#1B4B4C"/>
</g>
</svg>
