<svg width="124" height="124" viewBox="0 0 124 124" fill="none" xmlns="http://www.w3.org/2000/svg">
<path d="M61.853 123.706C96.0135 123.706 123.706 96.0135 123.706 61.853C123.706 27.6925 96.0135 0 61.853 0C27.6925 0 0 27.6925 0 61.853C0 96.0135 27.6925 123.706 61.853 123.706Z" fill="#D4CAFF"/>
<mask id="mask0_1_673" style="mask-type:luminance" maskUnits="userSpaceOnUse" x="0" y="0" width="124" height="124">
<path d="M61.853 123.706C96.0135 123.706 123.706 96.0135 123.706 61.853C123.706 27.6925 96.0135 0 61.853 0C27.6925 0 0 27.6925 0 61.853C0 96.0135 27.6925 123.706 61.853 123.706Z" fill="white"/>
</mask>
<g mask="url(#mask0_1_673)">
<path d="M120.981 209.756H13.932C13.483 205.666 29.88 118.678 49.14 90.711C51.325 87.538 70.045 85.228 76.918 93.121C113.32 134.925 121.86 208.753 120.981 209.756Z" fill="#1B4B4C"/>
<path d="M49.343 92.233C49.343 94.313 47.773 96.033 45.753 96.263C46.873 94.223 48.003 92.363 49.143 90.713C49.163 90.683 49.193 90.643 49.213 90.613C49.293 91.143 49.343 91.693 49.343 92.233Z" fill="#D4CAFF"/>
<path d="M73.753 92.233C73.753 94.473 71.933 96.293 69.703 96.293C67.463 96.293 65.643 94.473 65.643 92.233C65.643 90.813 65.933 89.433 66.363 88.163C68.963 88.553 71.483 89.303 73.603 90.493C73.703 91.063 73.753 91.653 73.753 92.233Z" fill="#D4CAFF"/>
<path d="M37.093 115.963C37.023 116.533 36.823 117.053 36.523 117.513C36.713 116.993 36.903 116.473 37.093 115.963Z" fill="#D4CAFF"/>
<path d="M61.547 115.374C61.547 117.612 59.733 119.426 57.495 119.426C55.257 119.426 53.443 117.612 53.443 115.374C53.443 110.1 57.495 105.282 57.495 105.282C57.495 105.282 61.547 110.293 61.547 115.374Z" fill="#D4CAFF"/>
<path d="M85.956 115.374C85.956 117.612 84.142 119.426 81.904 119.426C79.666 119.426 77.852 117.612 77.852 115.374C77.852 110.1 81.904 105.282 81.904 105.282C81.904 105.282 85.956 110.293 85.956 115.374Z" fill="#D4CAFF"/>
<path d="M46.603 97.931C43.565 105.801 32.102 133.4 25.871 153.206C21.69 166.497 20.098 177.652 19.183 180.584C19.183 180.584 50.792 170.432 57.909 170.414C68.87 170.387 86.451 193.278 82.139 196.146C75.359 200.655 43.041 215.995 17.232 220.811C3.20199 223.429 -23.23 205.597 -21.142 191.421C-18.211 171.525 17.742 119.081 31.422 104.209C38.525 96.488 50.305 88.338 46.603 97.931Z" fill="white"/>
<path d="M-23.067 195.625C-22.405 209.957 -4.47701 222.021 5.91899 222.659C23.851 223.747 77.645 208.081 77.645 208.081L56.735 167.796C56.735 167.796 20.13 180.221 19.201 180.571L19.202 180.555C19.526 179.487 28.546 145.591 32.576 134.359C32.791 133.739 33.04 133.105 33.275 132.437C34.435 129.326 36.027 125.218 37.785 120.779L37.803 120.748C38.777 118.291 39.807 115.724 40.819 113.188L40.82 113.172C45.241 102.19 49.55 91.738 49.55 91.738C43.388 92.749 37.304 95.988 27.314 106.474C17.341 116.943 -24.16 171.982 -23.067 195.625Z" fill="#1B4B4C"/>
<path d="M49.343 92.233C49.343 92.243 49.343 92.243 49.343 92.253C49.333 93.353 48.903 94.353 48.183 95.073C47.453 95.823 46.423 96.293 45.293 96.293C43.843 96.293 42.573 95.533 41.863 94.383C44.513 92.953 46.923 92.183 49.333 91.773C49.343 91.933 49.343 92.083 49.343 92.233Z" fill="#D4CAFF"/>
<path d="M37.138 115.374C37.138 117.612 35.324 119.426 33.086 119.426C30.848 119.426 29.034 117.612 29.034 115.374C29.034 110.1 33.086 105.282 33.086 105.282C33.086 105.282 37.138 110.293 37.138 115.374Z" fill="#D4CAFF"/>
<path d="M8.006 186.512L19.184 180.585L19.201 180.57L19.202 180.554C19.526 179.486 28.546 145.59 32.576 134.358C32.791 133.738 33.04 133.104 33.275 132.436C34.435 129.325 36.027 125.217 37.785 120.778L8.006 186.512Z" fill="#D4CAFF"/>
<path d="M6.89099 182.751C9.69599 182.789 26.633 178.265 29.1 180.59C44.134 194.762 48.886 191.907 52.086 193.753C76.857 208.005 109.937 224.747 121.745 224.853C139.652 224.998 146.784 209.971 143.804 195.772C137.92 167.703 100.065 112.975 82.938 98.434C73.856 90.735 74.574 102.348 78.331 114.97C80.534 122.372 84.387 133.377 88.318 144.176C91.8 153.796 101.025 178.381 101.185 178.958L101.184 178.974C101.198 179.007 101.214 179.025 101.213 179.041C101.225 179.107 101.16 179.119 101.016 179.078C100.229 178.933 79.046 168.95 57.743 163.466C50.236 161.533 34.603 158.78 28.998 161.282C25.665 162.77 25.608 164.759 25.608 164.759C25.608 164.759 22.936 164.516 20.118 166.836C18.249 168.375 17.669 170.553 17.669 170.553C17.669 170.553 14.745 170.962 13.224 172.657C11.41 174.678 11.25 176.817 11.25 176.817C7.306 177.87 6.89099 182.751 6.89099 182.751Z" fill="white"/>
<path d="M73.595 167.73C69.675 166.403 67.902 166.395 67.902 166.395L45.616 204.031C45.616 204.031 107.002 226.13 119.607 227.423C132.211 228.716 146.55 218.79 146.792 202.965C147.132 180.725 110.865 127.316 92.622 106.663C84.261 97.197 74.512 90.324 72.027 91.874C69.09 93.707 74.423 105.608 77.233 114.486C82.422 130.876 101.014 179.078 101.014 179.078C101.014 179.078 78.265 169.311 73.595 167.73Z" fill="#1B4B4C"/>
<path d="M73.753 92.233C73.753 93.883 72.763 95.313 71.343 95.943C71.003 93.903 71.133 92.433 72.023 91.873C72.423 91.623 73.003 91.593 73.743 91.753C73.753 91.913 73.753 92.073 73.753 92.233Z" fill="#D4CAFF"/>
<path d="M85.956 115.374C85.956 117.612 84.142 119.426 81.904 119.426C79.666 119.426 77.852 117.612 77.852 115.374C77.852 110.1 81.904 105.282 81.904 105.282C81.904 105.282 85.956 110.293 85.956 115.374Z" fill="#D4CAFF"/>
<path d="M51.175 106.487C56.943 108.561 68.144 100.658 72.995 93.774C73.325 93.3 73.155 87.908 73.259 81.347C73.338 77.365 73.519 72.934 73.976 68.902L47.992 72.176C47.992 72.176 49.519 80.91 48.678 87.934C48.601 88.52 48.481 89.06 48.316 89.569C48.299 89.644 48.267 89.734 48.248 89.839C47.38 92.923 45.601 104.479 51.175 106.487Z" fill="white"/>
<path d="M48.242 89.836C48.192 90.003 48.142 90.186 48.109 90.403C63.665 89.744 69.581 82.904 73.411 76.342C73.528 73.84 73.695 71.305 73.978 68.903L47.992 72.172C47.992 72.172 49.527 80.912 48.676 87.934C48.609 88.518 48.476 89.051 48.309 89.569C48.292 89.636 48.275 89.736 48.242 89.836Z" fill="#1B4B4C"/>
<path d="M83.532 52.114C83.532 52.114 99.233 68.71 96.665 71.714C94.097 74.718 71.172 70.419 66.148 66.465C61.124 62.511 51.895 46.367 51.895 46.367L83.532 52.114Z" fill="#FC8E44"/>
<path d="M80.997 36.595C83.722 45.628 78.875 71.68 72.438 77.472C63.107 85.868 47.871 86.626 40.747 75.419C33.842 64.556 40.76 30.715 47.946 25.456C58.531 17.709 76.972 23.253 80.997 36.595Z" fill="white"/>
<path d="M50.961 63.695C50.961 63.695 52.02 65.213 53.512 65.793C54.062 66.009 54.658 66.104 55.29 65.955C56.588 65.653 56.655 64.472 56.447 63.453C56.279 62.615 55.914 61.887 55.914 61.887C55.914 61.887 53.984 63.595 50.961 63.695Z" fill="white"/>
<path d="M52.097 64.924C52.178 64.991 52.27 65.07 52.362 65.138C52.776 65.068 53.193 64.975 53.585 64.811C53.084 64.859 52.584 64.897 52.097 64.924Z" fill="white"/>
<path d="M54.854 64.389C55.169 64.306 55.475 64.199 55.764 64.044C56.016 63.919 56.241 63.745 56.466 63.572C56.459 63.537 56.454 63.492 56.447 63.457C56.432 63.399 56.428 63.342 56.413 63.284C55.933 63.695 55.395 64.031 54.854 64.389Z" fill="white"/>
<path d="M58.827 51.194C58.853 51.13 58.949 51.302 58.934 51.374C58.561 53.12 58.427 55.183 59.91 56.054C59.956 56.081 59.935 56.168 59.877 56.15C57.988 55.525 58.193 52.788 58.827 51.194Z" fill="#1B4B4C"/>
<path d="M60.728 49.644C63.592 49.94 62.787 55.646 60.134 55.371C57.523 55.101 58.327 49.395 60.728 49.644Z" fill="#1B4B4C"/>
<path d="M48.059 49.574C48.055 49.504 47.909 49.638 47.901 49.71C47.708 51.486 47.188 53.486 45.507 53.847C45.455 53.858 45.447 53.948 45.507 53.948C47.497 53.949 48.161 51.286 48.059 49.574Z" fill="#1B4B4C"/>
<path d="M46.741 47.505C43.929 46.889 42.903 52.558 45.508 53.129C48.072 53.692 49.098 48.021 46.741 47.505Z" fill="#1B4B4C"/>
<path d="M63.347 47.353C62.597 47.048 61.957 46.641 61.247 46.263C60.446 45.836 59.764 45.578 59.317 44.743C59.078 44.295 59.304 43.583 59.717 43.31C60.68 42.673 61.791 42.952 62.776 43.427C63.845 43.942 64.537 44.613 65.04 45.686C65.528 46.724 64.336 47.755 63.347 47.353Z" fill="#1B4B4C"/>
<path d="M44.94 44.321C45.749 44.304 46.492 44.153 47.29 44.052C48.191 43.939 48.92 43.942 49.635 43.321C50.019 42.988 50.061 42.243 49.773 41.84C49.101 40.901 47.964 40.766 46.874 40.857C45.691 40.957 44.805 41.336 43.952 42.159C43.126 42.956 43.873 44.344 44.94 44.321Z" fill="#1B4B4C"/>
<path d="M57.167 67.485C56.685 67.839 56.182 68.349 55.534 68.312C54.912 68.277 54.23 67.898 53.697 67.6C53.644 67.571 53.579 67.622 53.608 67.68C53.971 68.423 54.877 68.984 55.716 68.956C56.536 68.929 57.029 68.293 57.327 67.589C57.368 67.49 57.238 67.434 57.167 67.485Z" fill="#1B4B4C"/>
<path d="M56.055 61.932C54.849 63.327 53.277 63.96 51.661 64.043C50.939 64.085 50.197 64.005 49.482 63.837C49.34 63.814 49.2 63.778 49.075 63.731C48.948 63.697 48.834 63.666 48.696 63.617C48.494 63.558 48.404 63.371 48.397 63.171L48.399 63.158C48.409 63.094 48.418 63.042 48.441 62.98C48.441 62.98 48.441 62.98 48.443 62.967L48.468 62.813C48.623 61.447 49.047 59.396 49.047 59.396C48.514 59.575 45.818 60.358 45.959 59.652C47.14 53.817 48.454 47.326 50.862 41.768C50.932 41.581 51.222 41.667 51.178 41.859C50.265 47.513 48.364 52.968 47.356 58.632C48.208 58.439 49.608 58.056 50.318 58.17C50.504 58.253 49.428 62.119 49.408 62.738C49.408 62.738 49.404 62.764 49.41 62.805C51.655 63.419 53.476 62.972 55.912 61.749C56.058 61.667 56.181 61.806 56.055 61.932Z" fill="#1B4B4C"/>
<path d="M80.628 59.739C75.775 57.848 74.821 40.885 74.821 40.885C74.821 40.885 74.196 47.981 72.882 47.685C71.569 47.389 67.03 37.242 67.068 30.274C67.068 30.274 60.349 33.954 53.856 35.243C47.363 36.531 41.272 37.388 41.372 36.316C41.67 33.119 45.555 24.411 50.176 21.862C55.496 18.929 62.143 16.371 72.087 21.294C82.032 26.217 83.874 31.734 84.917 37.017C85.961 42.3 82.412 60.434 80.628 59.739Z" fill="#1B4B4C"/>
<path d="M41.229 35.06C41.229 35.06 56.795 34.294 68.125 40.091C72.581 42.369 83.809 53.722 83.809 53.722C83.809 53.722 86.691 43.723 84.334 33.426C80.769 17.871 61.498 15.219 52.449 19.481C44.324 23.315 41.229 35.06 41.229 35.06ZM51.826 32.506C51.826 32.506 53.636 26.445 60.154 27.981C65.819 29.316 66.557 33.238 66.398 35.865C66.398 35.865 59.199 32.746 51.826 32.506Z" fill="#6EBEB5"/>
<path d="M75.359 57.822C75.359 57.822 81.447 49.531 85.222 51.722C88.998 53.912 84.282 66.025 79.754 67.592C75.226 69.159 73.694 64.995 73.694 64.995L75.359 57.822Z" fill="white"/>
<path d="M83.784 55.16C83.856 55.155 83.868 55.256 83.805 55.28C80.628 56.482 78.903 59.363 77.672 62.362C78.636 61.219 79.925 60.61 81.46 61.761C81.54 61.822 81.459 61.948 81.371 61.927C80.088 61.621 79.152 61.823 78.257 62.835C77.623 63.552 77.18 64.467 76.719 65.3C76.565 65.578 76.06 65.416 76.175 65.094C76.183 65.071 76.193 65.046 76.202 65.022C76.215 61.008 79.466 55.464 83.784 55.16Z" fill="#1B4B4C"/>
</g>
</svg>
