<svg width="124" height="124" viewBox="0 0 124 124" fill="none" xmlns="http://www.w3.org/2000/svg">
<path d="M61.853 123.706C96.0135 123.706 123.706 96.0135 123.706 61.853C123.706 27.6925 96.0135 0 61.853 0C27.6925 0 0 27.6925 0 61.853C0 96.0135 27.6925 123.706 61.853 123.706Z" fill="#FC8E44"/>
<mask id="mask0_1_421" style="mask-type:luminance" maskUnits="userSpaceOnUse" x="0" y="0" width="124" height="124">
<path d="M61.853 123.706C96.0135 123.706 123.706 96.0135 123.706 61.853C123.706 27.6925 96.0135 0 61.853 0C27.6925 0 0 27.6925 0 61.853C0 96.0135 27.6925 123.706 61.853 123.706Z" fill="white"/>
</mask>
<g mask="url(#mask0_1_421)">
<path d="M97.212 71.828C98.111 88.037 98.76 104.724 97.16 120.896C95.917 133.492 90.625 143.867 77.53 146.959C65.384 149.822 48.084 149.604 37.809 141.553C33.025 137.796 31.358 132.498 31.678 126.564C32.117 118.312 38.661 73.117 40.614 59.021C41.79 50.438 42.939 41.735 45.632 33.439C51.283 16.032 59.894 16.178 61.088 15.827C62.121 15.166 68.731 12.22 78.135 15.217C83.331 16.873 87.007 20.393 89.31 25.165C96.071 39.137 96.362 56.651 97.212 71.828Z" fill="#1B4B4C"/>
<path d="M58.403 18.241C48.045 23.082 45.576 34.391 43.068 44.527C39.576 58.637 36.325 72.811 33.763 87.122C32.531 94.003 31.453 100.912 30.583 107.848C29.75 114.486 28.453 121.569 28.901 128.278C29.64 139.367 39.786 144.411 49.617 145.991C50.096 146.068 50.235 145.345 49.759 145.251C44.161 144.141 38.446 142.586 34.279 138.432C28.935 133.106 29.556 126.154 30.188 119.231C31.263 107.448 33.008 95.735 35.172 84.105C37.339 72.461 39.921 60.896 42.682 49.38C45.31 38.419 47.218 23.986 58.466 18.415C58.571 18.362 58.512 18.189 58.403 18.241Z" fill="#1B4B4C"/>
<path d="M94.074 37.006C92.106 28.533 87.705 20.272 78.781 17.812C78.764 17.807 78.76 17.833 78.776 17.838C90.308 21.512 93.117 34.115 94.654 44.642C96.271 55.72 97.464 66.856 98.265 78.023C99.035 88.764 99.583 99.592 99.373 110.363C99.147 121.988 97.042 132.876 90.176 142.458C90.034 142.656 90.303 142.895 90.468 142.706C97.23 134.957 99.468 124.279 100.011 114.284C100.726 101.122 99.872 87.731 98.842 74.607C97.864 62.137 96.91 49.215 94.074 37.006Z" fill="#1B4B4C"/>
<path d="M43.238 95.433C17.023 124.928 -14.723 185.751 -7.60999 197.376C0.313005 210.325 38.136 168.324 36.835 166.422C35.73 164.806 48.026 128.423 56.954 101.817C65.873 75.236 49.72 88.14 43.238 95.433Z" fill="white"/>
<path d="M43.238 95.433C17.023 124.928 -14.723 185.751 -7.60999 197.376C0.313005 210.325 38.136 168.324 36.835 166.422C35.73 164.806 48.026 128.423 56.954 101.817C65.873 75.236 49.72 88.14 43.238 95.433Z" fill="#D4CAFF"/>
<path d="M17.945 210.825L24.529 166.212C24.529 166.212 13.975 147.786 20.097 134.562C23.189 127.864 44.381 95.131 55.797 86.845C66.507 79.072 81.176 86.161 86.166 92.922C100.512 112.364 107.502 147.358 115.512 210.824H17.945V210.825Z" fill="#D4CAFF"/>
<path d="M37.15 107.416C34.984 110.388 32.881 113.405 30.813 116.447C31.377 115.263 31.945 114.082 32.501 112.895C32.541 112.809 32.416 112.738 32.372 112.823C31.603 114.31 30.895 115.818 30.205 117.337C27.443 121.429 24.759 125.574 22.171 129.778C21.073 131.561 20.066 133.378 19.325 135.342C18.608 137.243 18.163 139.244 17.927 141.26C17.691 143.28 17.674 145.309 17.829 147.335C17.99 149.422 18.242 151.489 18.71 153.531C19.238 155.834 19.958 158.126 20.892 160.299C21.351 161.366 21.84 162.427 22.367 163.462C22.849 164.407 23.829 166.338 23.815 166.412C23.617 167.48 23.417 168.23 23.282 169.128C23.144 170.043 23.007 170.959 22.869 171.874C22.593 173.705 20.216 191.523 19.948 193.356C19.415 196.994 18.958 200.635 18.504 204.284C18.243 206.377 18.107 208.489 17.812 210.577C17.8 210.661 17.928 210.696 17.943 210.61C18.244 208.79 18.695 206.996 19.026 205.181C19.357 203.365 19.693 201.549 20.033 199.734C20.721 196.066 23.37 176.378 23.944 172.691C24.103 171.671 24.262 170.652 24.421 169.632C24.579 168.619 24.85 167.257 24.81 166.229C24.81 166.229 21.543 159.516 20.274 154.81C19.741 152.834 19.196 150.78 18.976 148.742C18.76 146.739 18.738 144.721 18.902 142.713C19.066 140.706 19.444 138.714 20.059 136.795C20.694 134.815 21.605 132.972 22.623 131.163C24.756 127.373 27.023 123.652 29.322 119.961C31.929 115.775 34.566 111.606 37.262 107.477C37.308 107.408 37.197 107.351 37.15 107.416Z" fill="#1B4B4C"/>
<path d="M93.194 102.165C121.446 138.118 132.105 202.702 116.424 207.736C102.095 212.336 43.162 197.589 25.609 191.626C20.453 189.874 36.378 149.787 41.893 151.653C48.559 153.909 85.007 162.545 85.714 162.561C87.228 162.596 79.129 122.833 75.653 104.815C70.811 79.712 82.585 88.664 93.194 102.165Z" fill="white"/>
<path d="M85.185 160.932C85.641 160.659 77.175 122.281 74.335 102.255C71.496 82.229 80.44 84.153 93.311 101.273C107.097 119.612 131.644 169.254 123.14 206.015C120.386 217.919 35.106 201.243 35.106 201.243L46.598 152.228C46.598 152.228 84.48 161.354 85.185 160.932Z" fill="#D4CAFF"/>
<path d="M84.763 161.325C84.795 161.24 79.35 133.634 78.836 132.717C78.309 131.767 77.168 129.655 76.701 128.67C75.759 126.684 74.941 124.654 74.073 122.643C74 122.477 74.252 122.348 74.324 122.515C75.262 124.46 76.366 126.326 77.481 128.168C78.036 129.073 78.59 129.986 79.146 130.883C79.188 130.943 76.467 116.524 76.086 113.992C76.055 113.806 76.26 113.753 76.317 113.91C77.135 116.459 85.384 158.255 86.166 161.455C86.166 161.455 85.625 161.445 84.763 161.325Z" fill="#1B4B4C"/>
<path d="M54.22 118.202C53.877 118.202 53.589 117.932 53.553 117.589C53.517 117.211 53.787 116.886 54.166 116.85C54.526 116.814 54.868 117.084 54.905 117.463C54.941 117.824 54.653 118.166 54.292 118.203C54.256 118.202 54.238 118.202 54.22 118.202ZM52.471 117.949C52.364 117.949 52.273 117.931 52.165 117.895C51.841 117.714 51.697 117.318 51.859 116.975C52.021 116.651 52.435 116.507 52.76 116.669C53.102 116.832 53.247 117.246 53.066 117.589C52.958 117.823 52.724 117.949 52.471 117.949ZM55.969 117.787C55.698 117.787 55.428 117.607 55.338 117.336C55.211 116.975 55.392 116.597 55.734 116.471C56.095 116.345 56.474 116.525 56.599 116.868C56.726 117.228 56.545 117.607 56.203 117.751C56.113 117.77 56.041 117.787 55.969 117.787ZM57.609 117.048C57.357 117.048 57.122 116.922 57.014 116.688C56.834 116.363 56.96 115.949 57.285 115.768C57.627 115.606 58.023 115.732 58.204 116.057C58.384 116.382 58.259 116.797 57.915 116.976C57.826 117.03 57.717 117.048 57.609 117.048ZM51.246 116.688C51.012 116.688 50.777 116.561 50.651 116.327C50.47 116.003 50.597 115.589 50.921 115.408C51.246 115.228 51.661 115.353 51.841 115.678C52.021 116.02 51.895 116.417 51.57 116.597C51.463 116.652 51.354 116.688 51.246 116.688ZM59.16 116.129C58.944 116.129 58.709 116.021 58.583 115.823C58.385 115.517 58.475 115.084 58.781 114.886C59.106 114.688 59.52 114.778 59.718 115.084C59.917 115.39 59.845 115.823 59.52 116.022C59.412 116.093 59.286 116.129 59.16 116.129ZM60.62 115.102C60.422 115.102 60.224 115.011 60.08 114.831C59.863 114.525 59.918 114.11 60.224 113.876C60.513 113.659 60.945 113.714 61.161 114.02C61.395 114.308 61.341 114.741 61.034 114.958C60.908 115.047 60.764 115.102 60.62 115.102ZM50.632 114.993C50.326 114.993 50.056 114.794 49.966 114.47C49.894 114.109 50.11 113.749 50.47 113.658C50.849 113.586 51.21 113.802 51.299 114.163C51.371 114.523 51.155 114.902 50.776 114.974C50.741 114.993 50.687 114.993 50.632 114.993ZM62.026 113.984C61.846 113.984 61.647 113.893 61.521 113.731C61.269 113.442 61.323 113.028 61.593 112.776C61.882 112.541 62.315 112.577 62.549 112.866C62.801 113.155 62.747 113.587 62.458 113.821C62.333 113.929 62.188 113.984 62.026 113.984ZM50.345 113.227C50.003 113.227 49.714 112.956 49.678 112.613C49.642 112.235 49.912 111.911 50.291 111.875C50.652 111.839 50.994 112.109 51.03 112.488C51.066 112.849 50.777 113.191 50.417 113.228C50.398 113.227 50.362 113.227 50.345 113.227ZM63.396 112.794C63.198 112.794 63.018 112.722 62.892 112.577C62.639 112.289 62.658 111.875 62.928 111.622C63.217 111.369 63.631 111.388 63.883 111.658C64.136 111.928 64.118 112.361 63.847 112.613C63.721 112.74 63.559 112.794 63.396 112.794ZM64.694 111.55C64.514 111.55 64.352 111.478 64.207 111.352C63.954 111.082 63.954 110.649 64.207 110.396C64.477 110.126 64.91 110.126 65.162 110.396C65.433 110.666 65.433 111.099 65.162 111.352C65.037 111.496 64.856 111.55 64.694 111.55ZM50.254 111.424C49.894 111.424 49.588 111.135 49.588 110.757C49.569 110.396 49.876 110.09 50.254 110.072C50.632 110.072 50.921 110.378 50.94 110.738C50.94 111.117 50.633 111.424 50.273 111.424H50.254ZM65.955 110.27C65.776 110.27 65.613 110.198 65.487 110.09C65.217 109.82 65.198 109.387 65.451 109.135C65.721 108.846 66.136 108.846 66.406 109.099C66.677 109.351 66.695 109.784 66.442 110.054C66.299 110.198 66.136 110.27 65.955 110.27ZM50.29 109.639C50.272 109.639 50.272 109.639 50.254 109.639C49.894 109.621 49.605 109.297 49.624 108.918C49.642 108.557 49.948 108.251 50.326 108.287C50.705 108.287 50.993 108.612 50.976 108.99C50.957 109.35 50.651 109.639 50.29 109.639ZM67.164 108.936C67.001 108.936 66.839 108.882 66.713 108.756C66.424 108.521 66.406 108.089 66.658 107.818C66.892 107.529 67.325 107.493 67.596 107.746C67.885 107.998 67.921 108.431 67.668 108.701C67.543 108.863 67.344 108.936 67.164 108.936ZM50.417 107.836C50.399 107.836 50.381 107.836 50.362 107.836C49.984 107.8 49.713 107.476 49.749 107.096C49.785 106.718 50.11 106.447 50.489 106.483C50.849 106.519 51.138 106.844 51.102 107.222C51.066 107.566 50.759 107.836 50.417 107.836ZM68.317 107.566C68.174 107.566 68.029 107.511 67.902 107.404C67.614 107.169 67.56 106.754 67.812 106.467C68.046 106.178 68.479 106.125 68.749 106.376C69.055 106.61 69.091 107.026 68.839 107.313C68.714 107.476 68.516 107.566 68.317 107.566ZM69.454 106.159C69.31 106.159 69.165 106.105 69.039 106.015C68.75 105.799 68.696 105.365 68.912 105.078C69.146 104.772 69.579 104.717 69.868 104.951C70.156 105.168 70.21 105.601 69.994 105.888H69.976C69.85 106.07 69.652 106.159 69.454 106.159ZM50.632 106.052C50.597 106.052 50.561 106.052 50.542 106.052C50.164 105.997 49.911 105.655 49.966 105.277C50.02 104.916 50.345 104.664 50.723 104.7C51.083 104.754 51.354 105.096 51.3 105.475C51.263 105.799 50.957 106.052 50.632 106.052ZM70.517 104.718C70.391 104.718 70.247 104.682 70.139 104.592C69.833 104.375 69.76 103.942 69.977 103.654C70.193 103.348 70.626 103.276 70.913 103.491C71.22 103.707 71.292 104.141 71.076 104.428C70.949 104.628 70.733 104.718 70.517 104.718ZM50.903 104.267C50.867 104.267 50.831 104.267 50.795 104.267C50.416 104.195 50.181 103.852 50.236 103.474C50.29 103.113 50.651 102.861 51.011 102.934C51.39 102.988 51.641 103.349 51.569 103.709C51.516 104.033 51.227 104.267 50.903 104.267ZM71.544 103.24C71.418 103.24 71.292 103.204 71.184 103.132C70.859 102.915 70.787 102.501 70.985 102.195C71.201 101.87 71.616 101.798 71.922 101.997C72.247 102.213 72.319 102.627 72.121 102.934C71.977 103.131 71.779 103.24 71.544 103.24ZM51.246 102.5C51.191 102.5 51.155 102.5 51.102 102.482C50.741 102.41 50.507 102.049 50.579 101.688C50.651 101.328 51.012 101.094 51.372 101.166C51.733 101.237 51.967 101.598 51.895 101.959C51.841 102.284 51.552 102.5 51.246 102.5ZM72.518 101.725C72.41 101.725 72.284 101.689 72.176 101.618C71.851 101.437 71.762 101.023 71.959 100.698C71.942 100.698 71.942 100.698 71.942 100.698C72.14 100.373 72.555 100.283 72.879 100.481C73.203 100.661 73.294 101.076 73.095 101.401C72.968 101.617 72.752 101.725 72.518 101.725ZM51.624 100.751C51.57 100.751 51.516 100.733 51.462 100.733C51.101 100.643 50.885 100.282 50.975 99.921C51.047 99.543 51.426 99.327 51.786 99.417C52.147 99.507 52.381 99.868 52.291 100.229C52.22 100.536 51.931 100.751 51.624 100.751ZM73.438 100.175C73.33 100.175 73.203 100.139 73.113 100.085C72.788 99.905 72.662 99.49 72.843 99.165C73.024 98.841 73.438 98.733 73.762 98.913C74.087 99.093 74.213 99.507 74.033 99.832C73.906 100.049 73.672 100.175 73.438 100.175ZM52.075 99.003C52.021 99.003 51.949 99.003 51.895 98.984C51.534 98.877 51.319 98.516 51.427 98.155C51.517 97.795 51.895 97.578 52.256 97.687C52.616 97.777 52.833 98.155 52.724 98.516C52.652 98.805 52.364 99.003 52.075 99.003ZM74.267 98.588C74.176 98.588 74.068 98.552 73.978 98.516C73.636 98.354 73.491 97.939 73.672 97.596C73.834 97.272 74.231 97.128 74.573 97.29C74.898 97.47 75.041 97.867 74.879 98.21C74.753 98.444 74.518 98.588 74.267 98.588ZM52.58 97.272C52.508 97.272 52.436 97.272 52.382 97.253C52.021 97.145 51.823 96.766 51.931 96.406C52.039 96.045 52.418 95.847 52.779 95.955C53.139 96.063 53.337 96.442 53.23 96.802C53.138 97.092 52.868 97.272 52.58 97.272ZM74.988 96.93C74.916 96.93 74.826 96.93 74.754 96.894C74.412 96.75 74.231 96.371 74.357 96.01C74.501 95.668 74.88 95.487 75.241 95.631C75.584 95.758 75.764 96.154 75.62 96.496H75.638C75.528 96.767 75.258 96.93 74.988 96.93ZM53.138 95.578C53.066 95.578 52.994 95.559 52.922 95.542C52.562 95.415 52.382 95.019 52.507 94.677C52.634 94.316 53.012 94.136 53.372 94.262C53.715 94.388 53.913 94.766 53.786 95.127C53.68 95.398 53.427 95.578 53.138 95.578ZM75.583 95.236C75.511 95.236 75.439 95.218 75.385 95.2C75.024 95.092 74.826 94.713 74.934 94.371C75.041 94.01 75.42 93.812 75.781 93.92C76.142 94.027 76.34 94.407 76.232 94.749C76.142 95.055 75.87 95.236 75.583 95.236ZM53.787 93.884C53.697 93.884 53.607 93.884 53.535 93.848C53.174 93.704 53.012 93.307 53.156 92.964C53.3 92.622 53.696 92.441 54.039 92.585C54.381 92.729 54.544 93.126 54.4 93.469C54.31 93.739 54.058 93.884 53.787 93.884ZM76.069 93.505C76.014 93.505 75.961 93.487 75.906 93.487C75.527 93.397 75.312 93.019 75.402 92.658C75.492 92.297 75.87 92.081 76.231 92.171C76.592 92.261 76.808 92.622 76.718 92.983C76.646 93.289 76.357 93.505 76.069 93.505ZM54.509 92.243C54.418 92.243 54.31 92.224 54.22 92.171C53.877 92.009 53.733 91.612 53.895 91.27C54.058 90.945 54.472 90.802 54.796 90.964C55.138 91.126 55.283 91.523 55.121 91.865C54.996 92.098 54.761 92.243 54.509 92.243ZM76.448 91.738C76.393 91.738 76.357 91.738 76.321 91.738C75.943 91.667 75.708 91.306 75.781 90.945C75.853 90.585 76.196 90.332 76.574 90.405C76.935 90.477 77.187 90.82 77.115 91.198C77.043 91.522 76.754 91.738 76.448 91.738ZM55.356 90.657C55.23 90.657 55.122 90.621 55.014 90.566C54.689 90.368 54.582 89.953 54.78 89.629C54.96 89.323 55.375 89.214 55.699 89.395C56.024 89.593 56.132 90.008 55.934 90.332C55.807 90.53 55.59 90.657 55.356 90.657ZM76.737 89.971C76.701 89.971 76.665 89.971 76.646 89.971C76.268 89.917 76.015 89.575 76.069 89.214C76.105 88.835 76.448 88.565 76.808 88.619C77.187 88.674 77.439 89.016 77.403 89.377C77.349 89.719 77.061 89.971 76.737 89.971ZM56.293 89.124C56.167 89.124 56.059 89.088 55.933 89.033C55.626 88.835 55.518 88.403 55.734 88.097C55.914 87.772 56.348 87.681 56.654 87.88C56.978 88.078 57.069 88.493 56.871 88.818C56.744 89.016 56.527 89.124 56.293 89.124ZM76.899 88.187C76.881 88.187 76.881 88.187 76.863 88.187C76.485 88.151 76.214 87.844 76.232 87.466C76.25 87.087 76.574 86.799 76.935 86.835C77.313 86.853 77.602 87.177 77.584 87.538C77.547 87.898 77.259 88.187 76.899 88.187ZM57.267 87.61C57.141 87.61 57.014 87.574 56.889 87.502C56.582 87.303 56.492 86.888 56.691 86.565C56.889 86.258 57.322 86.168 57.628 86.366C57.934 86.565 58.024 86.979 57.826 87.303C57.7 87.502 57.483 87.61 57.267 87.61ZM76.935 86.384C76.574 86.384 76.268 86.095 76.268 85.717C76.25 85.357 76.557 85.032 76.917 85.032C77.296 85.013 77.603 85.321 77.62 85.699C77.62 86.059 77.331 86.365 76.953 86.384H76.935ZM58.24 86.114C58.114 86.114 57.987 86.078 57.862 85.987C57.556 85.789 57.483 85.357 57.682 85.05C57.898 84.744 58.313 84.672 58.638 84.87C58.944 85.086 59.016 85.5 58.818 85.807C58.8 85.807 58.8 85.807 58.8 85.807C58.673 86.005 58.457 86.114 58.24 86.114ZM59.286 84.635C59.142 84.635 58.997 84.599 58.889 84.509C58.583 84.293 58.511 83.86 58.745 83.554C58.962 83.265 59.376 83.193 59.683 83.41C59.99 83.644 60.044 84.059 59.827 84.365C59.701 84.545 59.484 84.635 59.286 84.635ZM76.808 84.599C76.465 84.599 76.178 84.347 76.123 84.005C76.087 83.644 76.339 83.302 76.7 83.247C77.079 83.193 77.421 83.446 77.475 83.824C77.511 84.184 77.258 84.526 76.898 84.581C76.862 84.581 76.826 84.599 76.808 84.599ZM60.386 83.211C60.224 83.211 60.08 83.175 59.954 83.068C59.665 82.833 59.629 82.401 59.863 82.112C60.097 81.823 60.53 81.788 60.819 82.022C61.107 82.256 61.143 82.689 60.909 82.977C60.764 83.139 60.584 83.211 60.386 83.211ZM76.43 82.832C76.124 82.832 75.871 82.652 75.781 82.364C75.673 82.003 75.871 81.624 76.232 81.516C76.574 81.408 76.953 81.607 77.061 81.967C77.188 82.328 76.971 82.689 76.61 82.815C76.556 82.832 76.484 82.832 76.43 82.832ZM61.593 81.877C61.413 81.877 61.251 81.822 61.106 81.679C60.854 81.426 60.836 80.993 61.106 80.723C61.359 80.47 61.792 80.453 62.062 80.723C62.332 80.976 62.332 81.408 62.062 81.679C61.936 81.805 61.756 81.877 61.593 81.877ZM75.727 81.192C75.492 81.192 75.258 81.065 75.132 80.85C74.952 80.525 75.06 80.111 75.385 79.93C75.709 79.732 76.124 79.84 76.304 80.164C76.484 80.489 76.376 80.903 76.051 81.101C75.961 81.156 75.835 81.192 75.727 81.192ZM62.909 80.669C62.711 80.669 62.513 80.578 62.386 80.416C62.152 80.127 62.188 79.695 62.477 79.461C62.783 79.226 63.198 79.28 63.432 79.568C63.667 79.857 63.631 80.29 63.342 80.524C63.216 80.615 63.054 80.669 62.909 80.669ZM74.609 79.786C74.447 79.786 74.284 79.732 74.158 79.606C73.888 79.354 73.852 78.921 74.104 78.651C74.357 78.381 74.79 78.362 75.06 78.597C75.349 78.849 75.367 79.282 75.114 79.57C74.969 79.714 74.79 79.786 74.609 79.786ZM64.388 79.641C64.153 79.641 63.919 79.534 63.811 79.317C63.613 78.992 63.721 78.578 64.046 78.38C64.37 78.199 64.784 78.308 64.965 78.633C65.163 78.957 65.055 79.371 64.731 79.552C64.622 79.624 64.496 79.641 64.388 79.641ZM66.01 78.884C65.721 78.884 65.47 78.703 65.361 78.433C65.234 78.091 65.415 77.694 65.776 77.568C66.118 77.442 66.514 77.623 66.641 77.965C66.767 78.325 66.586 78.704 66.244 78.83C66.154 78.867 66.082 78.884 66.01 78.884ZM73.095 78.812C73.004 78.812 72.932 78.794 72.842 78.758C72.5 78.614 72.337 78.217 72.481 77.874C72.625 77.532 73.022 77.37 73.365 77.514C73.707 77.676 73.869 78.054 73.725 78.397C73.617 78.668 73.365 78.812 73.095 78.812ZM67.741 78.416C67.416 78.416 67.128 78.182 67.074 77.857C67.002 77.496 67.254 77.136 67.633 77.081C67.994 77.009 68.336 77.262 68.409 77.622C68.463 78.001 68.229 78.343 67.85 78.415C67.85 78.397 67.85 78.397 67.85 78.397C67.813 78.416 67.777 78.416 67.741 78.416ZM71.364 78.362C71.347 78.362 71.31 78.362 71.293 78.362C71.274 78.362 71.274 78.362 71.257 78.362H71.238C70.86 78.308 70.607 77.966 70.643 77.605C70.698 77.227 71.04 76.974 71.4 77.01C71.418 77.01 71.436 77.028 71.436 77.028H71.454C71.833 77.064 72.085 77.407 72.049 77.767C71.995 78.127 71.707 78.362 71.364 78.362ZM69.526 78.253C69.147 78.253 68.859 77.965 68.84 77.587C68.84 77.208 69.146 76.92 69.526 76.901C69.886 76.901 70.192 77.208 70.211 77.568C70.211 77.947 69.904 78.253 69.526 78.253Z" fill="white"/>
<path d="M75.698 87.26C75.198 88.954 66.366 99.631 58.539 98.815C55.99 98.544 56.845 84.568 56.845 84.568L56.672 83.522L54.264 68.876L71.874 58.946L74.411 57.644C74.411 57.644 74.805 61.694 75.246 66.743C75.268 66.977 75.29 67.211 75.309 67.462C75.342 67.747 75.376 68.016 75.393 68.283C75.469 69.036 75.543 69.806 75.6 70.574C75.647 71.158 75.694 71.726 75.72 72.342C75.762 72.959 75.79 73.558 75.833 74.175C76.118 80.263 75.899 86.54 75.698 87.26Z" fill="white"/>
<path d="M75.247 66.742C70.446 78.015 60.984 82.182 56.672 83.521L54.264 68.875L71.874 58.945L74.411 57.643C74.411 57.643 74.806 61.694 75.247 66.742Z" fill="#1B4B4C"/>
<path d="M34.834 48.455C33.095 74.447 48.467 78.424 54.072 78.792C59.161 79.127 76.529 79.62 80.944 53.947C85.359 28.274 73.824 19.249 62.227 17.867C50.63 16.486 36.573 22.463 34.834 48.455Z" fill="white"/>
<path d="M42.733 41.844C43.346 41.795 43.904 41.648 44.506 41.537C45.185 41.412 45.738 41.382 46.255 40.88C46.532 40.611 46.531 40.043 46.295 39.75C45.744 39.067 44.874 39.013 44.051 39.13C43.157 39.257 42.501 39.584 41.89 40.246C41.296 40.886 41.923 41.907 42.733 41.844Z" fill="#1B4B4C"/>
<path d="M61.008 43.137C60.398 43.054 59.849 42.875 59.255 42.731C58.584 42.568 58.033 42.507 57.546 41.976C57.285 41.691 57.317 41.124 57.57 40.845C58.158 40.193 59.03 40.189 59.845 40.352C60.73 40.53 61.367 40.893 61.94 41.588C62.496 42.262 61.813 43.246 61.008 43.137Z" fill="#1B4B4C"/>
<path d="M56.749 49.766C56.765 49.699 56.884 49.856 56.879 49.929C56.746 51.698 56.892 53.748 58.47 54.405C58.519 54.426 58.51 54.514 58.451 54.504C56.506 54.144 56.339 51.422 56.749 49.766Z" fill="#1B4B4C"/>
<path d="M58.41 47.984C61.27 47.891 61.246 53.616 58.597 53.703C55.991 53.788 56.014 48.063 58.41 47.984Z" fill="#1B4B4C"/>
<path d="M59.534 48.291C60.033 48.617 60.521 49.191 61.123 49.253C61.821 49.325 62.35 48.728 62.808 48.153C62.855 48.093 62.905 48.144 62.906 48.219C62.918 49.316 62.491 50.44 61.315 50.599C60.241 50.744 59.475 49.769 59.206 48.665C59.154 48.461 59.333 48.16 59.534 48.291Z" fill="#1B4B4C"/>
<path d="M45.927 48.458C45.914 48.39 45.787 48.54 45.788 48.613C45.821 50.387 45.56 52.425 43.948 52.992C43.898 53.01 43.902 53.099 43.962 53.091C45.923 52.842 46.242 50.134 45.927 48.458Z" fill="#1B4B4C"/>
<path d="M44.367 46.585C41.517 46.331 41.218 52.049 43.858 52.284C46.457 52.517 46.756 46.798 44.367 46.585Z" fill="#1B4B4C"/>
<path d="M43.156 46.899C42.688 47.179 42.212 47.706 41.671 47.713C41.043 47.721 40.613 47.079 40.244 46.465C40.206 46.401 40.158 46.447 40.152 46.522C40.064 47.613 40.366 48.771 41.405 49.035C42.352 49.277 43.105 48.375 43.422 47.301C43.482 47.102 43.344 46.787 43.156 46.899Z" fill="#1B4B4C"/>
<path d="M55 63.525C54.593 63.958 54.193 64.546 53.552 64.627C52.937 64.704 52.203 64.455 51.629 64.26C51.572 64.24 51.518 64.303 51.556 64.354C52.044 65.015 53.03 65.401 53.845 65.223C54.641 65.05 55.01 64.34 55.174 63.598C55.197 63.494 55.059 63.462 55 63.525Z" fill="#1B4B4C"/>
<path d="M47.686 56.997C47.686 56.997 47.278 59.64 47.258 60.89C47.257 61.007 47.558 61.067 47.982 61.099C48.002 61.106 48.013 61.114 48.031 61.101C50.232 61.481 52.465 60.754 53.835 58.974C53.923 58.853 53.767 58.722 53.652 58.798C51.986 59.981 50.161 60.264 48.204 60.266C48.121 59.919 49.054 55.763 48.856 55.745C48.174 55.676 46.821 56.119 46.009 56.343C46.699 50.813 48.27 45.439 48.874 39.922C48.892 39.725 48.61 39.661 48.549 39.836C46.504 45.353 45.57 51.699 44.711 57.392C44.596 58.099 47.183 57.202 47.686 56.997Z" fill="#1B4B4C"/>
<path d="M79.035 54.502C72.627 54.138 71.187 34.388 71.037 31.961C71.052 33.494 71.102 41.615 70.475 41.925C70.315 41.998 69.601 41.833 68.47 41.501L68.454 41.498C68.471 40.579 68.419 39.583 68.283 38.591C68.241 38.14 68.092 39.564 67.809 41.312C67.448 41.204 67.057 41.075 66.632 40.957C66.718 39.21 66.657 37.045 66.153 34.774C65.981 34.006 65.703 37.449 64.905 40.447C60.506 39.158 54.151 37.453 48.181 37.128C46.584 37.034 45.203 37.024 43.98 37.056C44.023 34.66 44.353 32.114 44.166 32.66C43.602 34.214 43.267 35.772 43.07 37.09C42.408 37.114 41.794 37.146 41.244 37.189C41.151 33.8 42.877 28.436 42.317 29.25C40.176 32.408 39.24 35.745 38.872 37.512C36.553 37.91 35.906 38.348 35.855 37.747C35.767 36.663 37.292 27.223 44.815 20.439C52.992 13.065 69.021 11.51 77.785 23.331C77.785 23.331 85.103 28.335 86.105 36.166C87.109 43.978 82.737 54.707 79.035 54.502Z" fill="#1B4B4C"/>
<path d="M75.782 54.838C75.782 54.838 81.305 46.596 85.035 48.55C88.764 50.504 84.722 62.373 80.423 64.071C76.124 65.769 74.475 61.82 74.475 61.82L75.782 54.838Z" fill="white"/>
<path d="M83.791 51.924C83.861 51.916 83.876 52.014 83.816 52.039C80.804 53.329 79.261 56.176 78.199 59.118C79.08 57.977 80.297 57.337 81.824 58.382C81.904 58.437 81.831 58.562 81.745 58.546C80.496 58.304 79.603 58.538 78.782 59.551C78.201 60.268 77.812 61.168 77.402 61.991C77.265 62.265 76.772 62.13 76.869 61.815C76.876 61.792 76.885 61.768 76.892 61.744C76.74 57.873 79.642 52.396 83.791 51.924Z" fill="#1B4B4C"/>
<path d="M81.624 64.133C81.624 65.235 80.731 66.128 79.629 66.128C78.527 66.128 77.634 65.235 77.634 64.133C77.634 63.031 78.527 62.138 79.629 62.138C80.73 62.138 81.624 63.031 81.624 64.133Z" fill="white"/>
<path d="M82.755 60.93C82.755 61.353 82.412 61.696 81.989 61.696C81.566 61.696 81.223 61.353 81.223 60.93C81.223 60.507 81.566 60.164 81.989 60.164C82.412 60.164 82.755 60.507 82.755 60.93Z" fill="white"/>
</g>
</svg>
